<?xml version="1.0" encoding="UTF-8" standalone="no"?><!DOCTYPE svg PUBLIC "-//W3C//DTD SVG 1.1//EN" "http://www.w3.org/Graphics/SVG/1.1/DTD/svg11.dtd"><svg width="100%" height="100%" viewBox="0 0 207 186" version="1.1" xmlns="http://www.w3.org/2000/svg" xmlns:xlink="http://www.w3.org/1999/xlink" xml:space="preserve" xmlns:serif="http://www.serif.com/" style="fill-rule:evenodd;clip-rule:evenodd;stroke-linejoin:round;stroke-miterlimit:1.41421;"><g><path d="M103.96,0.759c0.011,-0.422 0.356,-0.759 0.779,-0.759c0.423,0 0.769,0.337 0.78,0.759c0.58,22.252 1.325,50.778 1.638,62.795c0.01,0.39 0.307,0.713 0.695,0.755c0.388,0.042 0.747,-0.208 0.841,-0.587c2.369,-9.527 7.318,-29.43 11.218,-45.116c0.101,-0.408 0.507,-0.662 0.919,-0.574c0.411,0.087 0.678,0.484 0.605,0.898c-2.817,15.916 -6.392,36.111 -8.103,45.778c-0.068,0.384 0.159,0.76 0.53,0.879c0.372,0.119 0.774,-0.055 0.942,-0.407c5.174,-10.851 17.457,-36.608 27.038,-56.7c0.182,-0.381 0.635,-0.548 1.021,-0.377c0.386,0.172 0.565,0.621 0.403,1.011c-8.52,20.564 -19.442,46.927 -24.044,58.033c-0.149,0.36 -0.009,0.775 0.328,0.972c0.337,0.196 0.767,0.113 1.007,-0.194c6.039,-7.74 18.655,-23.91 28.598,-36.653c0.259,-0.331 0.733,-0.398 1.073,-0.151c0.34,0.247 0.423,0.719 0.188,1.067c-9.047,13.394 -20.527,30.389 -26.022,38.524c-0.218,0.324 -0.164,0.759 0.127,1.018c0.291,0.26 0.729,0.265 1.026,0.012c9.14,-7.808 30.837,-26.343 47.762,-40.8c0.321,-0.275 0.803,-0.243 1.086,0.071c0.283,0.314 0.264,0.796 -0.043,1.087c-16.148,15.321 -36.848,34.962 -45.569,43.236c-0.283,0.268 -0.324,0.705 -0.096,1.021c0.228,0.317 0.655,0.416 0.999,0.233c8.665,-4.615 26.767,-14.255 41.034,-21.853c0.37,-0.197 0.831,-0.065 1.041,0.299c0.21,0.364 0.094,0.829 -0.262,1.051c-13.713,8.556 -31.113,19.413 -39.442,24.61c-0.331,0.206 -0.458,0.626 -0.298,0.981c0.16,0.356 0.559,0.539 0.933,0.428c11.526,-3.415 38.885,-11.522 60.227,-17.846c0.406,-0.12 0.833,0.104 0.964,0.506c0.13,0.403 -0.083,0.835 -0.482,0.976c-20.983,7.429 -47.883,16.952 -59.215,20.964c-0.368,0.13 -0.583,0.512 -0.503,0.894c0.08,0.382 0.429,0.646 0.818,0.618c9.793,-0.691 30.251,-2.135 46.374,-3.273c0.42,-0.029 0.787,0.279 0.831,0.696c0.044,0.418 -0.252,0.796 -0.668,0.854c-16.007,2.239 -36.319,5.08 -46.041,6.44c-0.386,0.054 -0.673,0.385 -0.672,0.775c0.002,0.391 0.291,0.719 0.678,0.77c11.919,1.568 40.211,5.29 62.28,8.194c0.419,0.055 0.718,0.434 0.674,0.855c-0.045,0.42 -0.416,0.729 -0.837,0.695c-22.191,-1.748 -50.638,-3.99 -62.622,-4.934c-0.389,-0.03 -0.741,0.231 -0.824,0.612c-0.082,0.382 0.13,0.765 0.496,0.898c9.228,3.352 28.505,10.354 43.697,15.872c0.395,0.144 0.605,0.574 0.475,0.974c-0.13,0.4 -0.553,0.624 -0.957,0.508c-15.534,-4.465 -35.245,-10.131 -44.68,-12.843c-0.375,-0.108 -0.772,0.078 -0.929,0.435c-0.158,0.357 -0.027,0.775 0.306,0.979c10.25,6.28 34.582,21.188 53.563,32.817c0.36,0.221 0.479,0.688 0.268,1.054c-0.212,0.366 -0.676,0.497 -1.048,0.296c-19.561,-10.623 -44.637,-24.241 -55.201,-29.979c-0.343,-0.186 -0.771,-0.09 -1.001,0.225c-0.231,0.314 -0.193,0.751 0.087,1.022c7.067,6.815 21.829,21.052 33.463,32.272c0.303,0.292 0.32,0.771 0.039,1.083c-0.282,0.313 -0.76,0.346 -1.082,0.076c-12.374,-10.398 -28.077,-23.591 -35.593,-29.907c-0.299,-0.251 -0.737,-0.242 -1.026,0.02c-0.289,0.262 -0.339,0.698 -0.118,1.019c6.81,9.907 22.975,33.422 35.584,51.765c0.24,0.349 0.158,0.824 -0.184,1.073c-0.342,0.248 -0.82,0.179 -1.077,-0.156c-13.549,-17.661 -30.919,-40.301 -38.236,-49.839c-0.237,-0.31 -0.667,-0.396 -1.006,-0.203c-0.338,0.194 -0.482,0.608 -0.335,0.97c3.683,9.1 11.379,28.111 17.443,43.093c0.158,0.389 -0.021,0.834 -0.405,1.005c-0.384,0.171 -0.834,0.007 -1.018,-0.371c-7.076,-14.532 -16.055,-32.972 -20.353,-41.798c-0.171,-0.351 -0.574,-0.521 -0.945,-0.399c-0.37,0.122 -0.594,0.499 -0.522,0.882c2.191,11.82 7.394,39.877 11.452,61.764c0.078,0.415 -0.191,0.817 -0.604,0.905c-0.414,0.088 -0.822,-0.17 -0.92,-0.581c-5.195,-21.645 -11.854,-49.393 -14.659,-61.082c-0.091,-0.379 -0.449,-0.633 -0.837,-0.594c-0.388,0.039 -0.687,0.359 -0.701,0.749c-0.336,9.812 -1.038,30.309 -1.592,46.462c-0.014,0.42 -0.359,0.753 -0.779,0.753c-0.42,0 -0.765,-0.333 -0.779,-0.753c-0.554,-16.153 -1.256,-36.65 -1.592,-46.462c-0.014,-0.39 -0.313,-0.71 -0.701,-0.749c-0.388,-0.039 -0.746,0.215 -0.837,0.594c-2.805,11.689 -9.464,39.437 -14.658,61.082c-0.099,0.411 -0.507,0.669 -0.921,0.581c-0.413,-0.088 -0.681,-0.49 -0.604,-0.905c4.058,-21.887 9.261,-49.944 11.453,-61.764c0.071,-0.383 -0.152,-0.76 -0.523,-0.882c-0.37,-0.122 -0.774,0.048 -0.945,0.399c-4.298,8.826 -13.276,27.266 -20.352,41.798c-0.184,0.378 -0.635,0.542 -1.018,0.371c-0.384,-0.171 -0.564,-0.616 -0.406,-1.005c6.065,-14.982 13.76,-33.993 17.443,-43.093c0.147,-0.362 0.003,-0.776 -0.335,-0.97c-0.339,-0.193 -0.768,-0.107 -1.006,0.203c-7.317,9.538 -24.686,32.178 -38.236,49.839c-0.257,0.335 -0.735,0.404 -1.077,0.156c-0.342,-0.249 -0.423,-0.724 -0.184,-1.073c12.61,-18.343 28.775,-41.858 35.584,-51.765c0.221,-0.321 0.171,-0.757 -0.118,-1.019c-0.289,-0.262 -0.727,-0.271 -1.026,-0.02c-7.516,6.316 -23.218,19.509 -35.593,29.907c-0.322,0.27 -0.8,0.237 -1.081,-0.076c-0.281,-0.312 -0.265,-0.791 0.038,-1.083c11.634,-11.22 26.396,-25.457 33.463,-32.272c0.281,-0.271 0.318,-0.708 0.088,-1.022c-0.231,-0.315 -0.659,-0.411 -1.002,-0.225c-10.564,5.738 -35.64,19.356 -55.201,29.979c-0.371,0.201 -0.836,0.07 -1.047,-0.296c-0.212,-0.366 -0.093,-0.833 0.268,-1.054c18.98,-11.629 43.312,-26.537 53.562,-32.817c0.333,-0.204 0.464,-0.622 0.307,-0.979c-0.158,-0.357 -0.555,-0.543 -0.929,-0.435c-9.436,2.712 -29.147,8.378 -44.681,12.843c-0.404,0.116 -0.827,-0.108 -0.957,-0.508c-0.129,-0.4 0.081,-0.83 0.476,-0.974c15.192,-5.518 34.469,-12.52 43.696,-15.872c0.367,-0.133 0.578,-0.516 0.496,-0.898c-0.083,-0.381 -0.435,-0.642 -0.823,-0.612c-11.985,0.944 -40.432,3.186 -62.623,4.934c-0.421,0.034 -0.792,-0.275 -0.836,-0.695c-0.045,-0.421 0.254,-0.8 0.673,-0.855c22.07,-2.904 50.361,-6.626 62.28,-8.194c0.387,-0.051 0.676,-0.379 0.678,-0.77c0.002,-0.39 -0.285,-0.721 -0.672,-0.775c-9.722,-1.36 -30.034,-4.201 -46.041,-6.44c-0.416,-0.058 -0.711,-0.436 -0.667,-0.854c0.043,-0.417 0.411,-0.725 0.83,-0.696c16.123,1.138 36.581,2.582 46.374,3.273c0.389,0.028 0.739,-0.236 0.818,-0.618c0.08,-0.382 -0.135,-0.764 -0.503,-0.894c-11.332,-4.012 -38.232,-13.535 -59.215,-20.964c-0.398,-0.141 -0.612,-0.573 -0.481,-0.976c0.13,-0.402 0.557,-0.626 0.963,-0.506c21.342,6.324 48.702,14.431 60.228,17.846c0.374,0.111 0.772,-0.072 0.932,-0.428c0.16,-0.355 0.033,-0.775 -0.298,-0.981c-8.329,-5.197 -25.729,-16.054 -39.442,-24.61c-0.356,-0.222 -0.472,-0.687 -0.262,-1.051c0.21,-0.364 0.671,-0.496 1.042,-0.299c14.266,7.598 32.368,17.238 41.033,21.853c0.345,0.183 0.771,0.084 0.999,-0.233c0.228,-0.316 0.187,-0.753 -0.096,-1.021c-8.72,-8.274 -29.421,-27.915 -45.569,-43.236c-0.306,-0.291 -0.325,-0.773 -0.043,-1.087c0.283,-0.314 0.765,-0.346 1.086,-0.071c16.925,14.457 38.622,32.992 47.763,40.8c0.296,0.253 0.734,0.248 1.025,-0.012c0.291,-0.259 0.346,-0.694 0.127,-1.018c-5.495,-8.135 -16.975,-25.13 -26.022,-38.524c-0.235,-0.348 -0.152,-0.82 0.188,-1.067c0.34,-0.247 0.815,-0.18 1.073,0.151c9.943,12.743 22.559,28.913 28.598,36.653c0.24,0.307 0.67,0.39 1.007,0.194c0.337,-0.197 0.477,-0.612 0.328,-0.972c-4.601,-11.106 -15.524,-37.469 -24.044,-58.033c-0.162,-0.39 0.017,-0.839 0.403,-1.011c0.386,-0.171 0.839,-0.004 1.021,0.377c9.581,20.092 21.864,45.849 27.038,56.7c0.168,0.352 0.571,0.526 0.942,0.407c0.372,-0.119 0.598,-0.495 0.53,-0.879c-1.711,-9.667 -5.286,-29.862 -8.103,-45.778c-0.073,-0.414 0.195,-0.811 0.606,-0.898c0.411,-0.088 0.817,0.166 0.919,0.574c3.899,15.686 8.848,35.589 11.217,45.116c0.094,0.379 0.453,0.629 0.841,0.587c0.388,-0.042 0.685,-0.365 0.695,-0.755c0.314,-12.017 1.058,-40.543 1.639,-62.795Z" style="fill:#257dc1;fill-opacity:0.1;"/><g><path d="M65.63,86.762c-0.138,0.691 0.139,1.014 0.83,1.014l4.652,0c0.737,0 1.106,-0.323 1.198,-1.014l4.837,-23.678l11.148,23.955c0.277,0.414 0.461,0.737 0.784,0.737l4.929,0c0.737,0 1.197,-0.323 1.336,-1.014l6.818,-32.155c0.138,-0.598 -0.461,-1.013 -0.922,-1.013l-4.653,0c-0.322,0 -0.829,0.138 -1.151,0.691l-4.515,22.296l-10.595,-22.296c-0.184,-0.461 -0.737,-0.691 -1.198,-0.691l-5.436,0c-0.645,0 -1.105,0.461 -1.198,1.013l-6.864,32.155Z" style="fill:#1f7dc1;fill-rule:nonzero;"/><path d="M109.947,66.262c0.138,-0.645 -0.369,-1.105 -0.921,-1.105l-3.87,0c-0.691,0 -1.152,0.46 -1.29,1.105l-4.376,20.454c-0.139,0.691 0.184,1.06 0.875,1.06l3.87,0c0.737,0 1.197,-0.369 1.336,-1.06l4.376,-20.454Zm-4.975,-7.831c-0.415,1.935 0.829,3.501 2.764,3.501c2.027,0 3.869,-1.566 4.284,-3.501c0.415,-1.981 -0.783,-3.547 -2.81,-3.547c-1.935,0 -3.824,1.566 -4.238,3.547Z" style="fill:#1f7dc1;fill-rule:nonzero;"/><path d="M121.924,77.078c-3.317,0 -5.343,-2.396 -4.56,-5.897c0.691,-3.363 3.915,-6.219 7.324,-6.219c1.474,0 2.995,0.645 3.916,1.474c0.23,0.185 0.461,0.323 0.645,0.323c0.322,0 0.599,-0.184 0.829,-0.461l2.442,-3.086c0.092,-0.093 0.23,-0.369 0.276,-0.507c0.092,-0.507 -0.138,-0.829 -0.599,-1.152c-1.796,-1.382 -3.915,-2.257 -6.357,-2.257c-6.495,0 -12.899,5.298 -14.327,11.839c-1.382,6.542 2.856,11.747 9.306,11.747c2.672,0 5.297,-1.013 7.601,-2.349c0.368,-0.231 0.875,-0.507 1.013,-1.06c0,-0.092 -0.046,-0.322 -0.092,-0.506l-1.105,-2.442c-0.185,-0.461 -0.369,-0.921 -0.784,-0.921c-0.184,0 -0.506,0.092 -0.737,0.23c-1.658,0.691 -2.948,1.198 -4.791,1.244Z" style="fill:#1f7dc1;fill-rule:nonzero;"/><path d="M143.432,81.352c-2.26,0.444 -4.822,-0.883 -5.066,-3.558l12.25,-2.407c1.899,-0.373 3.401,-1.091 3.391,-3.295c0.011,-5.918 -4.356,-10.459 -11,-9.153c-5.56,1.092 -10.787,7.705 -10.917,14.21c-0.095,6.685 5.076,11.021 11.359,9.787c2.576,-0.506 5.056,-1.745 6.978,-3.672c0.354,-0.351 0.735,-0.801 0.736,-1.271c-0.026,-0.136 -0.071,-0.362 -0.206,-0.57l-1.771,-2.563c-0.243,-0.281 -0.441,-0.335 -0.713,-0.282c-0.316,0.062 -0.733,0.567 -1.231,0.899c-1.178,0.936 -2.536,1.672 -3.81,1.875Zm-4.97,-7.615c0.315,-2.456 2.663,-4.842 4.878,-5.277c2.712,-0.533 4.795,0.748 4.84,3.368l-9.718,1.909Z" style="fill:#1f7dc1;fill-rule:nonzero;"/></g><g><g><path d="M53.853,131.807c0,4.054 0.233,10.904 0.233,11.184c0,0.652 0.373,1.071 1.025,1.071c0.466,0 0.839,-0.419 0.839,-1.071c0,-0.746 -0.187,-6.897 -0.28,-11.231c0,-1.025 0.047,-1.957 0.047,-2.656c0,-0.606 -0.233,-1.072 -0.932,-1.072c-0.559,0 -0.699,0.28 -1.911,0.792c-2.004,0.839 -2.004,0.886 -3.308,1.352c-0.513,0.186 -0.792,0.512 -0.792,0.978c0,0.699 0.512,0.932 0.885,0.932c0.233,0 0.466,-0.046 0.745,-0.186l3.216,-1.491c0.233,-0.093 0.233,0.046 0.233,0.466l0,0.932Z" style="fill:#fdba2d;fill-rule:nonzero;"/><path d="M62.427,144.062c0.42,0 0.699,-0.093 1.025,-0.279c1.957,-1.165 6.897,-4.101 6.897,-9.973c0,-4.054 -3.029,-5.778 -5.499,-5.778c-3.634,0 -5.685,2.19 -5.685,5.312c0,2.377 1.631,4.893 5.219,4.893c1.491,0 2.517,-0.372 3.355,-0.932c-1.398,3.029 -4.333,4.614 -5.591,5.313c-0.28,0.14 -0.466,0.373 -0.466,0.745c0,0.42 0.326,0.699 0.745,0.699Zm1.957,-7.689c-2.33,0 -3.355,-1.537 -3.355,-3.029c0,-2.283 1.352,-3.448 3.821,-3.448c1.678,0 3.635,1.165 3.635,3.914c0,0.839 -1.165,2.563 -4.101,2.563Z" style="fill:#fdba2d;fill-rule:nonzero;"/><path d="M78.085,141.639c0,-1.305 -1.165,-2.47 -2.424,-2.47c-1.351,0 -2.469,1.026 -2.469,2.47c0,1.398 1.304,2.423 2.469,2.423c1.165,0 2.424,-1.025 2.424,-2.423Z" style="fill:#fdba2d;fill-rule:nonzero;"/><path d="M84.189,131.807c0,4.054 0.233,10.904 0.233,11.184c0,0.652 0.373,1.071 1.025,1.071c0.466,0 0.839,-0.419 0.839,-1.071c0,-0.746 -0.186,-6.897 -0.28,-11.231c0,-1.025 0.047,-1.957 0.047,-2.656c0,-0.606 -0.233,-1.072 -0.932,-1.072c-0.559,0 -0.699,0.28 -1.911,0.792c-2.003,0.839 -2.003,0.886 -3.308,1.352c-0.513,0.186 -0.792,0.512 -0.792,0.978c0,0.699 0.512,0.932 0.885,0.932c0.233,0 0.466,-0.046 0.746,-0.186l3.215,-1.491c0.233,-0.093 0.233,0.046 0.233,0.466l0,0.932Z" style="fill:#fdba2d;fill-rule:nonzero;"/><path d="M98.122,127.986c-4.473,0 -8.294,3.867 -8.294,8.061c0,5.546 4.892,8.015 8.248,8.015c3.401,0 8.341,-2.749 8.341,-8.015c0,-4.194 -3.821,-8.061 -8.295,-8.061Zm0,1.864c3.169,0 6.384,2.935 6.384,6.197c0,4.241 -3.821,6.151 -6.337,6.151c-2.563,0 -6.431,-1.77 -6.431,-6.151c0,-3.169 3.169,-6.197 6.384,-6.197Z" style="fill:#fdba2d;fill-rule:nonzero;"/><path d="M114.152,141.639c0,-1.305 -1.165,-2.47 -2.423,-2.47c-1.351,0 -2.47,1.026 -2.47,2.47c0,1.398 1.305,2.423 2.47,2.423c1.165,0 2.423,-1.025 2.423,-2.423Z" style="fill:#fdba2d;fill-rule:nonzero;"/><path d="M120.956,142.012c-0.28,0 -0.326,0 -0.326,-0.093c0,-0.093 0.326,-0.233 0.699,-0.513c1.072,-0.839 5.871,-4.147 5.871,-8.388c0,-2.935 -1.91,-4.986 -5.871,-4.986c-1.585,0 -2.656,0.466 -3.495,0.886c-0.373,0.186 -0.746,0.466 -0.746,0.978c0,0.606 0.42,0.839 0.746,0.839c0.279,0 0.326,-0.047 0.652,-0.187c0.699,-0.279 1.445,-0.652 2.843,-0.652c2.749,0 3.961,1.025 3.961,3.122c0,4.567 -6.617,8.155 -7.549,9.041c-0.373,0.326 -0.606,0.512 -0.606,0.885c0,0.606 0.326,0.932 1.398,0.932c0,0 3.774,-0.047 4.473,-0.047c1.258,0 3.728,0.047 3.728,0.047c0.699,0 0.932,-0.513 0.932,-0.885c0,-0.653 -0.373,-0.979 -0.932,-0.979c0,0 -2.05,-0.047 -3.495,-0.047c-1.351,0 -2.003,0.047 -2.283,0.047Z" style="fill:#fdba2d;fill-rule:nonzero;"/><path d="M156.837,131.807c0,4.054 0.233,10.904 0.233,11.184c0,0.652 0.373,1.071 1.026,1.071c0.466,0 0.838,-0.419 0.838,-1.071c0,-0.746 -0.186,-6.897 -0.279,-11.231c0,-1.025 0.046,-1.957 0.046,-2.656c0,-0.606 -0.233,-1.072 -0.932,-1.072c-0.559,0 -0.699,0.28 -1.91,0.792c-2.004,0.839 -2.004,0.886 -3.309,1.352c-0.512,0.186 -0.792,0.512 -0.792,0.978c0,0.699 0.513,0.932 0.886,0.932c0.233,0 0.466,-0.046 0.745,-0.186l3.215,-1.491c0.233,-0.093 0.233,0.046 0.233,0.466l0,0.932Z" style="fill:#fdba2d;fill-rule:nonzero;"/><path d="M162.523,139.542c0,3.262 2.563,4.52 5.545,4.52c2.982,0 5.685,-1.398 5.685,-4.52c0,-2.283 -1.445,-3.402 -2.936,-3.914c1.165,-0.559 2.19,-1.585 2.19,-3.262c0,-3.076 -2.423,-4.334 -4.939,-4.334c-2.516,0 -4.8,1.258 -4.8,4.334c0,1.631 0.979,2.656 2.097,3.215c-1.491,0.513 -2.842,1.585 -2.842,3.961Zm5.591,-2.842c1.352,0 3.728,0.326 3.728,2.842c0,1.864 -1.864,2.656 -3.774,2.656c-1.911,0 -3.635,-0.792 -3.635,-2.656c0,-2.609 2.284,-2.842 3.681,-2.842Zm0,-1.864c-1.118,0 -2.982,-0.606 -2.982,-2.517c0,-1.677 1.445,-2.469 2.936,-2.469c1.538,0 3.075,0.792 3.075,2.469c0,1.911 -1.957,2.517 -3.029,2.517Z" style="fill:#fdba2d;fill-rule:nonzero;"/></g><path d="M133.45,138.302c1.078,3.868 4.663,6.647 8.682,5.528c4.387,-1.223 6.82,-4.832 5.675,-8.942c-1.162,-4.17 -4.413,-7.531 -8.34,-6.437c-5.093,1.419 -7.339,5.106 -6.017,9.851Zm9.543,4.48c-0.237,-0.324 -0.429,-0.883 -0.658,-1.535l-2.135,-5.945c-0.074,2.311 -0.151,5.875 -0.185,6.558c-0.033,0.657 -0.077,1.094 -0.199,1.383c0.763,0.102 1.552,0.05 2.337,-0.168c0.287,-0.08 0.568,-0.178 0.84,-0.293Zm2.238,-11.336c-0.195,2.03 -0.803,8.409 -0.867,9.265c-0.057,0.443 -0.093,0.985 -0.187,1.439c2.277,-1.506 3.64,-4.261 2.838,-7.139c-0.436,-1.447 -1.04,-2.645 -1.784,-3.565Zm-1.92,-1.604c-1.215,-0.626 -2.627,-0.753 -4.174,-0.322c-2.992,0.834 -4.734,2.622 -5.227,4.796c0.052,-0.023 0.113,-0.045 0.184,-0.063c0,0 0.699,-0.166 1.796,-0.456c0.365,-0.096 0.513,0.019 0.551,0.163c0.066,0.252 -0.042,0.434 -0.608,0.584c0,0 -0.243,0.045 -0.462,0.103c0.902,1.937 3.238,7.295 3.547,7.946c0.182,0.394 0.215,0.52 0.252,0.511c0.073,-0.02 0.049,-0.186 0.077,-0.598c0.061,-0.806 0.154,-6.453 0.292,-8.377c0.028,-0.412 0.172,-0.681 0.391,-0.739c0.219,-0.058 0.385,-0.024 0.553,0.393c0.717,1.679 2.425,6.966 2.729,7.675c0.155,0.363 0.179,0.53 0.252,0.511c0.037,-0.01 0.04,-0.145 0.077,-0.598c0.075,-0.752 0.571,-6.185 0.804,-8.435c0.144,-1.386 -1.48,-1.345 -1.118,-2.884c0.019,-0.082 0.048,-0.151 0.084,-0.21Zm-9.52,5.222c-0.075,0.798 0.006,1.636 0.244,2.489c0.709,2.543 2.257,4.37 4.125,5.214c-0.057,-0.119 -0.115,-0.244 -0.174,-0.371c-0.355,-0.753 -2.615,-5.823 -3.359,-7.533l-0.836,0.201Z" style="fill:#fdba2d;stroke:#fdba2d;stroke-width:0.4px;"/><g><path d="M140.649,145.695c0.435,0.085 0.648,0.674 0.724,1.114c0.274,1.584 -0.058,3.876 -0.987,3.781c-0.458,-0.047 -0.575,-0.781 -0.613,-1.209c-0.091,-1.013 -0.041,-2.011 0.082,-3.053c0.056,-0.408 0.427,-0.692 0.794,-0.633Z" style="fill:#fdba2d;"/><path d="M133.581,145.338c0.739,-0.097 1.186,0.748 0.141,1.986c-0.239,0.282 -0.49,0.555 -0.713,0.845c0,0 -0.113,0.148 -0.248,0.22c-0.52,0.274 -1.338,-0.249 -1.1,-0.898c0.297,-0.811 0.973,-1.566 1.647,-2.036c0.082,-0.057 0.174,-0.102 0.273,-0.117Z" style="fill:#fdba2d;"/><path d="M146.18,143.493c0.983,0.031 1.809,1.389 2.147,2.462c0.203,0.647 -0.537,1.517 -1.467,0.5c-0.524,-0.574 -1.009,-1.206 -1.34,-1.908c-0.204,-0.432 0.087,-1.018 0.602,-1.054c0.019,0 0.039,-0.001 0.058,0Z" style="fill:#fdba2d;"/><path d="M141.563,128.096c1.403,0.015 2.787,0.527 3.855,1.474c2.234,1.982 3.015,5.272 2.795,7.987c-0.188,2.333 -1.544,4.51 -3.688,5.685c-3.223,1.767 -7.577,1.551 -10.057,-1.527c-3.054,-3.789 -2.346,-10.257 2.185,-12.575c1.472,-0.754 3.152,-1.033 4.795,-1.045c0.038,0 0.077,0 0.115,0.001Zm-0.713,1.69c-0.202,0.001 -0.405,0.007 -0.608,0.02c-2.146,0.131 -4.341,1.077 -5.385,3.006c-0.837,1.545 -0.873,3.438 -0.431,5.175c0.701,2.757 3.127,5.077 6.212,4.863c3.127,-0.217 6.035,-2.762 6.048,-6.051c-0.055,-2.418 -0.691,-4.965 -2.844,-6.261c-0.889,-0.535 -1.943,-0.754 -2.992,-0.752Z" style="fill:#fdba2d;"/><path d="M127.845,138.196c1.02,-0.189 2.109,-0.557 3.033,-0.43c0.632,0.087 0.829,1.049 0.126,1.407c-0.885,0.451 -2.051,0.563 -2.942,0.47c-0.403,-0.043 -0.788,-0.326 -0.777,-0.713c0.01,-0.333 0.13,-0.64 0.56,-0.734Z" style="fill:#fdba2d;"/><path d="M151.584,135.704c1.252,0.011 2.93,0.147 2.845,1.128c-0.074,0.838 -1.534,0.593 -2.637,0.538c-0.332,-0.016 -0.663,-0.027 -0.995,-0.034c-0.189,-0.004 -0.378,-0.006 -0.567,-0.007c-0.148,-0.001 -0.357,-0.002 -0.357,-0.002c-0.634,-0.044 -1.06,-1.004 -0.22,-1.365c0.59,-0.252 1.275,-0.26 1.931,-0.258Z" style="fill:#fdba2d;"/><path d="M129.882,127.595c1.058,0.017 1.996,1.134 2.55,2.062c0.421,0.705 -0.058,1.852 -1.41,0.777c-0.669,-0.532 -1.38,-1.065 -1.844,-1.759c-0.282,-0.422 0.086,-1.085 0.704,-1.08Z" style="fill:#fdba2d;"/><path d="M150.589,126.861c0.428,-0.014 0.871,0.329 0.813,0.772c-0.104,0.783 -1.164,1.249 -2.103,1.781c-0.655,0.371 -1.684,0.788 -1.791,-0.227c-0.064,-0.601 0.715,-1.08 1.386,-1.549c0.527,-0.369 1.037,-0.742 1.695,-0.777Z" style="fill:#fdba2d;"/><path d="M140.282,121.555c0.601,0.029 0.734,0.87 0.786,1.333c0.118,1.041 0.052,2.093 0.05,3.143c0,0 -0.286,1.008 -1.036,0.739c-0.274,-0.098 -0.474,-0.364 -0.514,-0.658c0,0 -0.158,-3.087 -0.021,-3.778c0.073,-0.367 0.214,-0.791 0.735,-0.779Z" style="fill:#fdba2d;"/></g></g><g><g><path d="M53.646,90.972c-0.824,8.133 -5.457,23.525 -7.979,23.525c-2.471,0 0.978,-14.208 2.625,-20.488c0.618,-2.368 -5.199,-2.213 -5.456,-1.338c-0.567,2.007 -1.133,4.221 -1.648,6.537c-2.47,6.229 -6.589,15.289 -9.162,15.289c-3.243,0 1.904,-13.693 3.654,-19.252c1.905,-5.92 0.103,-10.656 -5.25,-10.656c-6.743,0 -11.067,8.339 -11.067,12.045c0,4.273 4.066,4.839 4.066,2.832c0,-4.118 4.067,-12.458 7.104,-12.458c2.007,0 0.515,3.604 -0.566,7.156c-2.059,6.486 -9.781,24.811 0.36,24.811c4.324,0 7.773,-5.868 9.369,-10.759c-0.515,6.023 0.308,10.759 4.272,10.759c8.648,0 13.796,-17.605 16.112,-28.003c0.772,-3.397 -6.023,-3.861 -6.434,0Z" style="fill:#41bfb7;fill-rule:nonzero;"/><path d="M93.076,107.856c-0.257,-0.515 -0.875,-0.566 -1.184,-0.103c-1.132,1.802 -3.5,5.354 -4.839,5.354c-2.882,0 2.883,-13.538 3.346,-14.774c0.669,-1.75 -2.11,-3.243 -3.963,-2.162c-1.596,0.875 -2.934,1.441 -4.015,1.544c1.492,-3.706 2.007,-5.25 2.007,-7.464c0,-1.595 -0.721,-2.779 -1.699,-2.779c-1.853,0 -4.684,3.552 -4.684,7.412c0,1.133 0.412,2.934 1.493,4.17l0.051,0.051c-1.184,1.905 -2.728,3.912 -4.632,4.993c1.183,-5.765 -0.412,-9.317 -3.449,-9.317c-1.905,0 -3.398,1.03 -4.427,2.42c-0.566,-0.978 -1.545,-1.648 -2.471,-1.287c-3.192,1.441 -6.795,9.008 -6.795,15.803c0,4.787 2.059,7.258 5.714,7.258c3.552,0 7.824,-3.449 10.501,-11.428c0.154,-0.411 0.257,-0.823 0.36,-1.184l0,-0.051c2.677,-0.875 4.993,-2.986 7.001,-6.074c0.36,0.103 0.721,0.154 1.133,0.154c0.669,0 1.183,-0.051 1.544,-0.206c-1.699,4.17 -3.809,10.965 -3.809,15.083c0,2.265 0.772,3.706 2.573,3.706c4.221,0 9.163,-8.442 10.193,-10.347c0.154,-0.257 0.154,-0.566 0.051,-0.772Zm-24.194,-0.463c-1.698,4.787 -4.066,8.493 -5.559,7.773c-1.338,-0.669 -0.721,-5.611 0.875,-9.626c0.515,-1.339 1.081,-2.626 1.596,-3.604c0.257,1.854 1.39,3.655 3.449,4.479c-0.103,0.309 -0.206,0.669 -0.361,0.978Zm0.824,-2.934c-1.441,-0.772 -2.162,-2.368 -2.162,-4.17c0,-1.287 0.772,-2.368 1.75,-1.853c0.824,0.412 1.081,2.934 0.412,6.023Z" style="fill:#41bfb7;fill-rule:nonzero;"/><path d="M113.975,86.236c0.824,-2.11 -3.757,-4.066 -4.993,-1.132c-1.647,3.912 -3.294,8.545 -4.736,13.023c-0.154,-1.75 -1.184,-3.346 -3.294,-3.346c-3.552,0 -7.567,3.501 -9.884,11.479c-2.213,7.722 -0.411,12.715 3.141,12.715c2.728,0 4.684,-2.162 5.919,-4.17c-0.051,0.206 -0.051,0.361 -0.051,0.515c0,2.214 0.823,3.655 2.625,3.655c4.221,0 9.111,-8.442 10.192,-10.347c0.103,-0.257 0.155,-0.566 0,-0.772c-0.206,-0.515 -0.823,-0.566 -1.132,-0.103c-1.133,1.802 -3.501,5.354 -4.839,5.354c-0.978,0 -0.824,-1.699 -0.103,-4.736c2.111,-8.597 4.273,-15.031 7.155,-22.135Zm-17.707,29.084c-1.081,-0.566 -0.721,-4.787 0.875,-9.471c1.595,-4.685 3.809,-8.031 4.89,-7.516c1.132,0.566 0.721,4.839 -0.875,9.523c-1.596,4.684 -3.758,8.03 -4.89,7.464Z" style="fill:#41bfb7;fill-rule:nonzero;"/><path d="M126.278,96.429c-0.566,2.779 4.17,3.963 5.353,1.441c2.729,-5.817 2.317,-13.178 -4.787,-13.178c-6.795,0 -16.369,12.457 -16.369,24.4c0,7.206 4.478,9.883 8.442,9.883c6.383,0 10.501,-6.126 11.479,-10.244c0.772,-2.985 -2.471,-4.941 -3.089,-3.037c-1.853,5.663 -5.404,9.781 -7.824,9.781c-1.853,0 -3.037,-1.905 -3.037,-5.766c0,-10.861 8.854,-22.855 11.685,-22.855c1.699,0 -1.029,5.251 -1.853,9.575Z" style="fill:#41bfb7;fill-rule:nonzero;"/><path d="M154.899,107.856c-0.258,-0.515 -0.876,-0.566 -1.184,-0.103c-1.133,1.802 -3.501,5.354 -4.839,5.354c-2.883,0 2.883,-13.538 3.346,-14.774c0.823,-2.11 -3.449,-3.861 -4.942,-1.132c-0.36,0.617 -0.772,1.544 -1.235,2.676c0.463,-2.316 -0.361,-5.096 -3.192,-5.096c-3.552,0 -7.567,3.501 -9.883,11.479c-2.214,7.722 -0.412,12.715 3.14,12.715c2.78,0 4.736,-2.214 5.971,-4.273c0,0.206 0,0.412 0,0.567c0,2.265 0.772,3.706 2.574,3.706c4.221,0 9.111,-8.442 10.192,-10.347c0.155,-0.257 0.155,-0.566 0.052,-0.772Zm-16.73,7.464c-1.081,-0.566 -0.721,-4.787 0.875,-9.471c1.596,-4.685 3.809,-8.031 4.89,-7.516c1.133,0.566 0.721,4.839 -0.875,9.523c-1.596,4.684 -3.758,8.03 -4.89,7.464Z" style="fill:#41bfb7;fill-rule:nonzero;"/><path d="M184.085,107.856c-0.206,-0.515 -0.875,-0.566 -1.132,-0.103c-1.133,1.802 -3.5,5.354 -4.839,5.354c-2.059,0 0.515,-7.104 2.008,-11.531c0.926,-2.831 0.36,-6.795 -2.78,-6.795c-2.419,0 -4.839,2.677 -6.743,5.92c0.514,-2.677 -0.155,-5.92 -2.986,-5.92c-2.265,0 -4.633,2.42 -6.486,5.508c0.258,-0.772 0.463,-1.441 0.669,-1.956c0.824,-2.11 -3.552,-3.964 -4.941,-1.132c-1.545,3.14 -4.994,15.494 -4.994,18.325c0,3.295 4.273,4.581 4.633,2.316c0.309,-1.75 1.081,-5.147 2.059,-8.699c1.287,-3.861 4.53,-8.751 5.869,-8.751c0.669,0 0.154,2.162 -0.155,3.243c-1.39,4.633 -2.728,10.141 -2.728,11.891c0,3.295 4.272,4.581 4.633,2.316c0.257,-1.647 1.029,-4.89 1.904,-8.236c1.184,-3.963 4.685,-9.214 6.075,-9.214c0.669,0 0.154,2.162 -0.155,3.243c-1.184,3.861 -2.728,8.545 -2.728,11.634c0,2.265 0.772,3.706 2.574,3.706c4.272,0 9.162,-8.442 10.243,-10.347c0.103,-0.257 0.103,-0.566 0,-0.772Z" style="fill:#41bfb7;fill-rule:nonzero;"/><path d="M204.058,107.856c-0.257,-0.515 -0.772,-0.772 -1.081,-0.257c-1.544,2.882 -4.993,7.103 -8.596,8.236c1.647,-1.905 3.243,-4.633 4.478,-8.288c2.625,-7.773 1.081,-12.766 -2.522,-12.766c-2.214,0 -4.016,1.493 -5.354,3.14c0.052,-1.904 -3.912,-3.294 -5.045,-0.617c-3.757,8.853 -8.442,27.282 -8.442,28.672c0,3.243 4.273,4.581 4.633,2.316c0.309,-2.007 1.493,-7.052 3.14,-12.92c0,1.853 0.927,3.603 3.14,3.603c8.185,0.463 13.899,-7.155 15.649,-10.295c0.103,-0.258 0.103,-0.618 0,-0.824Zm-16.575,7.567c-1.081,-0.566 -0.464,-4.839 1.338,-9.523c1.853,-4.684 4.221,-8.03 5.302,-7.464c1.081,0.566 0.463,4.787 -1.338,9.472c-1.853,4.684 -4.221,8.081 -5.302,7.515Z" style="fill:#41bfb7;fill-rule:nonzero;"/></g></g><g><g transform="matrix(0.994522,-0.104528,0.104528,0.994522,27.0164,-29.0062)"><text x="3.611px" y="95.871px" style="font-family:'Steady';font-size:21.856px;fill:#f59995;">T<tspan x="10.103px 18.299px " y="95.871px 95.871px ">he</tspan></text></g><path d="M64.577,64.342l0.026,0.311c-0.315,0.378 -0.516,0.403 -0.729,0.519c-2.619,1.446 -4.717,3.723 -7.62,4.503c-0.843,0.226 -1.716,0.312 -2.588,0.338c-0.26,0.007 -1.384,-0.031 -1.968,-0.096c-0.463,-0.052 -0.924,-0.123 -1.383,-0.205c-2.396,-0.429 -4.788,-1.19 -7.362,-0.724c-1.46,0.264 -2.842,0.871 -4.115,1.649l-0.306,0.048l-0.252,-0.183l-0.047,-0.303l0.178,-0.251c2.838,-1.76 6.033,-2.59 9.86,-2.138l0.062,0.008c1.752,0.239 3.544,0.553 5.223,0.632c1.474,0.07 3.35,-0.148 5.028,-1.067c1.847,-1.011 3.567,-2.251 5.448,-3.212l0.309,-0.025c0.079,0.065 0.157,0.131 0.236,0.196Z" style="fill:#f59995;fill-rule:nonzero;"/><path d="M65.585,42.401c0,0 0.011,0.312 0.011,0.312c-0.352,0.381 -0.568,0.391 -0.802,0.505c-2.733,1.335 -4.96,3.709 -7.69,4.49c-2.154,0.616 -4.622,0.3 -6.493,-0.092c-3.089,-0.654 -6.296,-1.173 -9.444,0.332c-0.456,0.218 -0.898,0.466 -1.329,0.729l-0.307,0.048c0,0 -0.252,-0.183 -0.252,-0.183l-0.047,-0.303l0.179,-0.25c2.848,-1.767 6.093,-2.58 9.696,-2.158c2.421,0.284 4.837,1.03 7.543,0.561c2.241,-0.388 4.051,-1.945 6.18,-3.094c0.727,-0.392 1.467,-0.758 2.22,-1.096c0,0 0.31,-0.009 0.31,-0.009c0.075,0.069 0.15,0.139 0.225,0.208Z" style="fill:#f59995;fill-rule:nonzero;"/></g></g><path id="icon_palmtree" d="M22.168,36.103c-1.537,0.718 -2.795,2.093 -3.786,3.514c-0.292,0.419 -0.551,0.936 -0.551,0.936c-0.24,0.297 -0.689,0.163 -0.688,-0.433c0.003,-1.48 0.141,-2.963 0.543,-4.381c0,0 -0.428,0.364 -0.702,0.616c-1.354,1.246 -2.904,2.455 -3.631,4.13c-0.067,0.156 -0.036,0.156 -0.086,0.24c-0.161,0.275 -0.695,0.19 -0.698,-0.209c0,-0.069 0.089,-2.557 0.854,-4.352l0.395,-0.869l0.565,-0.981c0.029,-0.052 0.059,-0.104 0.088,-0.155c0.775,-1.338 1.656,-2.669 2.782,-3.654c-2.212,0.334 -4.53,0.962 -6.291,2.198c-0.28,0.196 -0.576,0.561 -0.576,0.561c-0.257,0.248 -0.766,0.094 -0.622,-0.436c0.486,-1.785 2.045,-3.281 3.513,-4.42c1.859,-1.441 4.158,-2.397 6.585,-2.236l0.018,0.002c-1.1,-0.897 -2.338,-1.622 -3.639,-2.184c0,0 -0.191,-0.109 -0.22,-0.281c-0.035,-0.2 0.099,-0.396 0.336,-0.437c3.316,-0.297 6.861,-0.135 9.382,2.179c0.14,0.128 0.115,0.337 0.439,0.067c3.165,-2.582 8.57,-2.152 11.421,0.97c0.318,0.348 0.28,0.863 -0.534,0.677c-2.223,-0.498 -4.604,-0.417 -6.687,0.459c0,0 0.949,0.096 1.692,0.23c3.192,0.579 6.05,2.595 7.44,5.67c0.206,0.453 0.079,1.13 -0.554,0.638c-0.714,-0.533 -1.655,-0.75 -2.574,-1.006c-1.922,-0.535 -3.945,-1.019 -5.867,-0.736c-0.281,0.041 -0.677,-0.174 -0.298,0.438c1.468,2.382 2.272,4.804 2.069,7.626c-0.023,0.328 -0.5,0.639 -0.765,0.069c-0.199,-0.426 -0.598,-1.045 -1.106,-1.758c-1.072,-1.506 -2.347,-2.995 -3.885,-3.757c0,0 0.057,0.11 0.116,0.226c0.67,1.346 0.85,2.892 0.881,4.4c0.02,0.973 -0.492,0.641 -0.671,0.442c-1.116,-1.476 -2.276,-2.991 -3.769,-4.007c-0.056,-0.037 -0.124,-0.079 -0.186,-0.115c0.027,0.155 -0.005,0.346 -0.023,0.517c-0.423,4.163 -0.177,8.39 0.248,12.578c0.762,7.524 3.77,17.736 4.694,21.465c0.124,0.505 0.16,1.028 -0.305,1.168c-0.22,0.066 -0.743,-0.011 -0.965,-0.82c-2.24,-8.151 -4.712,-19.908 -4.609,-30.534c0.013,-1.423 0.057,-2.859 0.227,-4.255Zm-6.928,-5.928c0.232,-0.061 0.465,-0.12 0.698,-0.175c0.19,-0.044 0.38,-0.086 0.571,-0.124c0.913,-0.184 2.232,-0.491 2.222,0.343c0,0 -0.11,0.266 -0.393,0.423c-1.505,0.852 -2.498,2.595 -3.302,4.041l-0.559,0.97l-0.367,0.812c-0.333,0.781 -0.498,1.623 -0.624,2.466c0,0 0.757,-0.886 1.38,-1.54c0.973,-1.023 1.936,-2.188 3.129,-2.799c0.326,-0.167 0.955,-0.072 0.693,0.547c-0.052,0.124 -0.036,0.089 -0.058,0.144c-0.45,1.162 -0.615,2.419 -0.697,3.67c0,0 0.755,-0.97 1.411,-1.621c0.945,-0.938 2.232,-2.106 3.254,-2.204c0.522,-0.05 0.762,0.219 1.235,0.589c1.047,0.817 1.924,1.839 2.775,2.869l0.124,0.151c-0.113,-1.445 -0.408,-2.939 -1.35,-4.037c0,0 -0.187,-0.202 -0.13,-0.406c0.207,-0.741 1.978,0.087 3.289,1.253c1.196,1.063 2.224,2.321 3.066,3.688c-0.148,-2.365 -1.059,-4.705 -2.443,-6.608c0,0 -0.286,-0.386 0.325,-0.687c0.997,-0.491 2.232,-0.369 3.414,-0.236c1.892,0.212 3.777,0.627 5.531,1.348c-1.572,-2.825 -4.704,-4.396 -8.076,-4.657c-0.571,-0.045 -1.377,-0.079 -1.377,-0.079c-0.37,-0.053 -0.471,-0.507 -0.032,-0.788c0.124,-0.079 0.251,-0.154 0.38,-0.226c2.052,-1.14 4.549,-1.393 6.918,-1.052c-2.402,-1.917 -6.075,-2.183 -8.764,-0.708c-0.455,0.25 -0.88,0.56 -1.238,0.939c0,0 -0.332,0.206 -0.778,-0.25c-1.896,-1.928 -4.952,-2.375 -7.595,-2.301c0,0 2.32,1.329 3.438,2.54c0,0 0.313,0.77 -0.485,0.595c-0.334,-0.07 -0.39,-0.075 -0.575,-0.099c-2.81,-0.373 -5.688,1.089 -7.657,3.04c-0.515,0.51 -0.988,1.063 -1.4,1.66c0,0 1.07,-0.515 2.021,-0.858c0.666,-0.24 1.341,-0.449 2.026,-0.633Z" style="fill:#b3d234;fill-rule:nonzero;"/><path id="icon_bikini" d="M188.123,152.193c-0.607,-0.337 -1.147,0.055 -1.42,0.545c-0.438,0.787 -0.267,1.39 0.314,1.714c1.329,0.74 1.516,1.436 0.783,2.752c-0.503,0.903 0.328,1.383 1.025,1.771c0.813,0.453 1.507,0.755 2.039,-0.199c0.74,-1.329 2.044,-1.212 2.676,-0.859c0.71,0.395 1.358,0.384 1.861,-0.519c0.216,-0.387 0.637,-1.082 -0.098,-1.492c-0.904,-0.503 -2.455,-0.844 -3.642,-1.505c-1.136,-0.632 -2.571,-1.668 -3.538,-2.208Zm-0.21,0.56c1.045,0.582 2.325,1.532 3.46,2.164c1.264,0.705 2.984,1.138 3.565,1.462c0.335,0.187 0.076,0.499 -0.06,0.744c-0.244,0.439 -0.613,0.555 -0.987,0.346c-1.291,-0.718 -2.616,-0.645 -3.544,1.019c-0.258,0.464 -0.706,0.266 -1.235,-0.029c-0.464,-0.258 -1.012,-0.58 -0.796,-0.968c0.855,-1.535 0.756,-2.571 -0.999,-3.548c-0.271,-0.151 -0.42,-0.37 -0.112,-0.891c0.144,-0.258 0.359,-0.493 0.708,-0.299Zm-6.933,-9.256c0.323,0.18 1.098,-0.605 2.234,0.027c1.084,0.604 1.443,2.174 2.669,2.857c0.916,0.51 1.989,0.466 2.921,0.917c0.233,0.401 0.722,1.011 1.651,1.528c1.561,0.87 2.595,0.956 2.595,0.956c0.066,0.003 0.521,0.037 0.856,0.223c0.181,0.101 0.355,0.215 0.514,0.354c0.278,0.29 0.877,0.793 1.896,1.361c0.981,0.546 1.764,0.627 2.201,0.6c0.899,0.451 1.873,0.554 2.725,1.028c1.045,0.582 1.552,1.947 2.675,2.572c0.955,0.532 2.227,0.463 2.436,0.089c0.079,-0.142 0.052,-0.275 -0.09,-0.354c-0.336,-0.187 -1.001,0.339 -2.059,-0.251c-1.122,-0.625 -1.591,-1.968 -2.675,-2.572c-0.748,-0.417 -1.556,-0.546 -2.31,-0.831c-0.144,-0.925 -0.471,-3.525 -0.161,-4.08c0.726,-1.303 0.532,-2.746 1.143,-3.843c0.69,-1.238 1.971,-1.353 3.004,-0.778c0.167,0.093 0.322,0.027 0.401,-0.114c0.079,-0.142 0.054,-0.309 -0.088,-0.388c-1.329,-0.74 -2.949,-0.594 -3.833,0.993c-0.69,1.238 -0.451,2.69 -1.151,3.856c-0.428,0.708 -3.644,1.655 -4.34,1.842c-0.258,-0.143 -0.592,-0.211 -0.796,-0.24c-0.273,-0.998 -1.005,-3.84 -0.646,-4.485c0.712,-1.278 1.866,-1.801 2.678,-3.259c0.906,-1.626 0.357,-2.523 -0.559,-3.034c-1.032,-0.575 -2.288,0.011 -2.532,0.449c-0.079,0.142 -0.072,0.281 0.082,0.368c0.362,0.201 1.04,-0.926 2.163,-0.301c0.632,0.353 1.006,1.017 0.33,2.23c-0.848,1.523 -2.038,2.111 -2.678,3.259c-0.331,0.594 -3.089,1.813 -3.716,2.089c-0.822,-0.255 -1.691,-0.334 -2.349,-0.7c-1.2,-0.669 -1.431,-2.167 -2.67,-2.857c-0.954,-0.532 -2.339,-0.322 -2.591,0.129c-0.057,0.104 -0.085,0.274 0.07,0.36Zm17.61,8.238c-0.332,0.019 -1.058,-0.014 -1.987,-0.531c-1.058,-0.59 -1.579,-1.049 -1.794,-1.271c0.878,-0.271 2.576,-0.83 3.568,-1.427c-0.057,0.982 0.103,2.424 0.213,3.229Zm-6.5,-6.36c0.009,1.138 0.421,2.856 0.658,3.765c-0.393,-0.083 -1.077,-0.312 -2.006,-0.83c-0.967,-0.539 -1.364,-1.132 -1.51,-1.416c0.749,-0.343 2.047,-0.973 2.858,-1.519Z" style="fill:#b3d234;"/><path id="icon_heart" d="M17.73,133.585c0.115,-0.004 0.223,-0.094 0.232,-0.193c0.023,-0.242 -0.147,-1.202 -0.277,-1.802l0.876,0.439c0.106,0.554 0.254,2.215 0.609,2.248c0.127,0.011 0.236,-0.079 0.247,-0.192c0.022,-0.242 -0.149,-1.188 -0.268,-1.758l0.876,0.439c0.104,0.582 0.257,2.186 0.583,2.216c0.128,0.012 0.251,-0.077 0.261,-0.19c0.014,-0.3 -0.25,-1.628 -0.352,-2.081c0.518,-0.339 1.902,-0.899 1.928,-1.183c0.012,-0.127 -0.121,-0.24 -0.234,-0.25c-0.34,-0.046 -1.123,0.526 -1.954,0.994c-0.219,-0.107 -0.506,-0.262 -0.876,-0.439c0.618,-0.33 1.587,-0.742 1.611,-1.012c0.012,-0.127 -0.135,-0.241 -0.234,-0.25c-0.341,-0.032 -1.122,0.512 -1.924,0.982l-0.876,-0.439c0.616,-0.315 1.557,-0.73 1.58,-0.985c0.012,-0.128 -0.105,-0.254 -0.219,-0.264c-0.341,-0.032 -1.12,0.498 -1.908,0.969l-2.163,-1.087c0.871,-1.209 1.525,-2.552 1.662,-4.043c0.163,-1.761 -0.919,-3.078 -2.467,-3.221c-1.661,-0.154 -2.676,0.913 -3.134,2.303c-0.063,-2.269 -0.97,-3.771 -3.128,-3.97c-2.059,-0.19 -3.506,0.894 -3.871,3.453c-1.67,-0.842 -2.97,-1.492 -3.503,-1.77c0.558,-0.465 2.094,-0.967 2.119,-1.237c0.011,-0.114 -0.01,-0.202 -0.18,-0.217c-0.284,-0.026 -2.698,0.982 -2.742,1.465c-0.049,0.526 0.377,2.9 0.76,2.935c0.142,0.013 0.226,-0.122 0.237,-0.236c0.038,-0.412 -0.435,-1.501 -0.43,-2.174c0.561,0.281 1.918,0.951 3.683,1.844c-0.175,3.135 2.53,6.722 4.608,9.191c0.219,0.264 0.606,0.572 1.018,0.61c0.795,0.073 1.462,-0.782 1.948,-1.239c1.02,-0.965 2.15,-2.035 3.091,-3.238c0.795,0.389 1.533,0.772 2.204,1.106c0.084,0.495 0.237,2.242 0.607,2.276Zm-9.607,-7.174c0.014,-0.156 -0.075,-0.279 -0.253,-0.367c-1.082,-0.53 -2.095,-1.039 -3.011,-1.51c0.271,-2.324 1.48,-3.315 3.269,-3.15c2.159,0.199 2.833,2.052 2.585,4.736c-0.071,0.767 0.167,0.989 0.394,1.01c0.256,0.024 0.429,-0.146 0.507,-0.998c0.156,-1.69 1.03,-3.243 2.777,-3.081c1.236,0.114 2.082,1.18 1.951,2.6c-0.263,2.855 -2.944,5.515 -4.875,7.356c-0.378,0.366 -1.108,1.144 -1.534,1.104c-0.213,-0.019 -0.522,-0.248 -0.805,-0.589c-1.828,-2.232 -4.32,-5.498 -4.313,-8.362l2.876,1.426c0.164,0.087 0.409,0.066 0.432,-0.175Z" style="fill:#f59995;fill-rule:nonzero;"/><path id="icon_glass" d="M167.498,52.871c0.4,2.995 1.869,8.657 2.24,11.433c0.193,1.447 2.355,1.604 4.138,1.366c1.914,-0.256 3.499,-1.077 3.337,-2.29c-0.327,-2.454 0.301,-8.887 -0.053,-11.532c-0.074,-0.555 -0.531,-0.97 -1.164,-1.257c0.525,-1.75 1.047,-3.411 1.521,-4.872c0.103,-0.341 -0.447,-0.565 -0.572,-0.162l-1.512,4.827c-0.991,-0.299 -2.189,-0.362 -3.051,-0.247c-1.812,0.242 -5.158,0.689 -4.884,2.734Zm4.563,11.123c0.91,-3.095 1.924,-6.636 2.931,-10.012c0.638,-0.234 1.251,-0.539 1.663,-0.906c0.139,3.044 -0.321,8.176 -0.026,10.382c0.111,0.833 -1.239,1.415 -2.831,1.628c-1.52,0.202 -3.341,0.148 -3.476,-0.86c-0.349,-2.615 -1.496,-7.086 -2.043,-10.181c1.154,0.738 3.309,0.614 4.448,0.462c0.409,-0.054 0.961,-0.158 1.535,-0.309c-1.003,3.287 -1.952,6.536 -2.773,9.634c-0.112,0.387 0.458,0.534 0.572,0.162Zm-3.977,-11.187c-0.197,-1.475 2.769,-1.871 4.376,-2.086c0.789,-0.105 1.924,-0.063 2.806,0.191l-0.808,2.635c-0.658,0.192 -1.341,0.313 -1.809,0.376c-1.373,0.183 -4.368,0.36 -4.565,-1.116Zm8.492,-0.881c0.086,0.643 -0.57,1.073 -1.391,1.39c0.214,-0.742 0.441,-1.486 0.658,-2.199c0.399,0.2 0.688,0.473 0.733,0.809Z" style="fill:#41bfb7;fill-rule:nonzero;"/></svg>