<?xml version="1.0" encoding="UTF-8" standalone="no"?><!DOCTYPE svg PUBLIC "-//W3C//DTD SVG 1.1//EN" "http://www.w3.org/Graphics/SVG/1.1/DTD/svg11.dtd"><svg width="100%" height="100%" viewBox="0 0 282 240" version="1.1" xmlns="http://www.w3.org/2000/svg" xmlns:xlink="http://www.w3.org/1999/xlink" xml:space="preserve" xmlns:serif="http://www.serif.com/" style="fill-rule:evenodd;clip-rule:evenodd;stroke-linejoin:round;stroke-miterlimit:1.41421;"><g id="logo"><path id="sun" d="M139.786,0.983c0.014,-0.547 0.461,-0.983 1.008,-0.983c0.548,0 0.995,0.436 1.009,0.983c0.752,28.8 1.715,65.72 2.121,81.274c0.013,0.505 0.398,0.922 0.9,0.977c0.501,0.055 0.967,-0.27 1.088,-0.76c3.066,-12.33 9.471,-38.091 14.519,-58.392c0.131,-0.528 0.657,-0.857 1.189,-0.744c0.532,0.113 0.879,0.627 0.784,1.163c-3.646,20.599 -8.273,46.738 -10.487,59.25c-0.088,0.497 0.205,0.983 0.685,1.137c0.481,0.154 1.002,-0.071 1.219,-0.527c6.697,-14.044 22.594,-47.381 34.995,-73.385c0.236,-0.494 0.822,-0.71 1.321,-0.488c0.5,0.223 0.732,0.803 0.522,1.308c-11.027,26.616 -25.164,60.737 -31.119,75.111c-0.194,0.466 -0.012,1.004 0.424,1.258c0.436,0.254 0.993,0.147 1.304,-0.251c7.816,-10.018 24.145,-30.946 37.013,-47.439c0.335,-0.429 0.949,-0.516 1.389,-0.196c0.44,0.32 0.548,0.931 0.243,1.381c-11.709,17.336 -26.567,39.333 -33.679,49.862c-0.283,0.418 -0.213,0.981 0.164,1.318c0.376,0.336 0.943,0.342 1.327,0.014c11.831,-10.106 39.913,-34.094 61.818,-52.807c0.416,-0.355 1.04,-0.314 1.406,0.092c0.366,0.407 0.341,1.031 -0.056,1.408c-20.9,19.829 -47.692,45.25 -58.979,55.959c-0.366,0.347 -0.42,0.912 -0.124,1.322c0.295,0.41 0.847,0.538 1.293,0.301c11.215,-5.973 34.644,-18.45 53.109,-28.283c0.48,-0.256 1.076,-0.085 1.348,0.386c0.272,0.471 0.122,1.073 -0.34,1.361c-17.748,11.074 -40.268,25.125 -51.048,31.852c-0.428,0.267 -0.593,0.81 -0.386,1.27c0.207,0.461 0.723,0.697 1.207,0.553c14.918,-4.42 50.329,-14.913 77.952,-23.098c0.524,-0.155 1.077,0.136 1.246,0.656c0.169,0.52 -0.107,1.081 -0.623,1.263c-27.158,9.615 -61.974,21.94 -76.641,27.133c-0.476,0.168 -0.754,0.662 -0.651,1.157c0.103,0.494 0.555,0.836 1.059,0.801c12.675,-0.895 39.154,-2.764 60.021,-4.237c0.543,-0.038 1.018,0.36 1.075,0.901c0.057,0.541 -0.325,1.03 -0.864,1.105c-20.718,2.898 -47.007,6.575 -59.59,8.335c-0.5,0.07 -0.872,0.499 -0.87,1.004c0.002,0.505 0.377,0.93 0.878,0.996c15.426,2.03 52.043,6.847 80.607,10.605c0.543,0.072 0.929,0.562 0.872,1.106c-0.057,0.544 -0.537,0.944 -1.083,0.901c-28.721,-2.263 -65.539,-5.164 -81.05,-6.386c-0.504,-0.04 -0.959,0.298 -1.066,0.792c-0.107,0.493 0.167,0.99 0.642,1.162c11.942,4.338 36.892,13.401 56.555,20.543c0.511,0.185 0.783,0.743 0.615,1.26c-0.168,0.517 -0.716,0.808 -1.238,0.658c-20.106,-5.779 -45.617,-13.113 -57.829,-16.623c-0.485,-0.139 -0.999,0.101 -1.203,0.563c-0.203,0.462 -0.034,1.004 0.397,1.267c13.267,8.129 44.759,27.423 69.325,42.474c0.467,0.286 0.62,0.892 0.347,1.366c-0.274,0.473 -0.875,0.643 -1.356,0.382c-25.317,-13.749 -57.773,-31.375 -71.446,-38.801c-0.444,-0.241 -0.997,-0.117 -1.296,0.291c-0.298,0.407 -0.25,0.972 0.114,1.323c9.146,8.82 28.253,27.247 43.31,41.769c0.392,0.378 0.414,0.998 0.05,1.402c-0.364,0.404 -0.983,0.447 -1.399,0.097c-16.017,-13.457 -36.34,-30.533 -46.068,-38.707c-0.387,-0.325 -0.954,-0.314 -1.328,0.026c-0.374,0.339 -0.439,0.903 -0.153,1.319c8.814,12.821 29.735,43.257 46.056,66.999c0.31,0.451 0.204,1.066 -0.239,1.388c-0.442,0.321 -1.061,0.232 -1.394,-0.202c-17.536,-22.858 -40.017,-52.161 -49.487,-64.506c-0.308,-0.401 -0.864,-0.513 -1.302,-0.262c-0.438,0.251 -0.624,0.787 -0.434,1.255c4.767,11.778 14.727,36.383 22.576,55.774c0.204,0.504 -0.028,1.08 -0.525,1.301c-0.497,0.221 -1.079,0.009 -1.317,-0.48c-9.159,-18.809 -20.78,-42.675 -26.342,-54.099c-0.221,-0.453 -0.744,-0.674 -1.223,-0.516c-0.48,0.158 -0.769,0.646 -0.677,1.142c2.837,15.299 9.571,51.613 14.824,79.94c0.099,0.538 -0.248,1.057 -0.783,1.171c-0.535,0.114 -1.063,-0.22 -1.191,-0.752c-6.723,-28.014 -15.342,-63.928 -18.972,-79.057c-0.118,-0.491 -0.581,-0.82 -1.083,-0.769c-0.503,0.051 -0.89,0.465 -0.907,0.97c-0.436,12.698 -1.345,39.228 -2.061,60.135c-0.019,0.544 -0.465,0.975 -1.009,0.975c-0.543,0 -0.989,-0.431 -1.008,-0.975c-0.716,-20.907 -1.626,-47.437 -2.061,-60.135c-0.017,-0.505 -0.404,-0.919 -0.907,-0.97c-0.502,-0.051 -0.965,0.278 -1.083,0.769c-3.63,15.129 -12.249,51.043 -18.972,79.057c-0.128,0.532 -0.656,0.866 -1.191,0.752c-0.535,-0.114 -0.882,-0.633 -0.783,-1.171c5.253,-28.327 11.987,-64.641 14.824,-79.94c0.092,-0.496 -0.197,-0.984 -0.677,-1.142c-0.479,-0.158 -1.002,0.063 -1.223,0.516c-5.563,11.424 -17.183,35.29 -26.342,54.099c-0.238,0.489 -0.821,0.701 -1.317,0.48c-0.497,-0.221 -0.729,-0.797 -0.525,-1.301c7.849,-19.391 17.809,-43.996 22.576,-55.774c0.19,-0.468 0.004,-1.004 -0.434,-1.255c-0.438,-0.251 -0.994,-0.139 -1.302,0.262c-9.47,12.345 -31.951,41.648 -49.487,64.506c-0.333,0.434 -0.952,0.523 -1.394,0.202c-0.443,-0.322 -0.549,-0.937 -0.239,-1.388c16.321,-23.742 37.242,-54.178 46.056,-66.999c0.286,-0.416 0.221,-0.98 -0.153,-1.319c-0.374,-0.34 -0.941,-0.351 -1.328,-0.026c-9.728,8.174 -30.051,25.25 -46.068,38.707c-0.416,0.35 -1.035,0.307 -1.399,-0.097c-0.364,-0.404 -0.342,-1.024 0.05,-1.402c15.057,-14.522 34.164,-32.949 43.31,-41.769c0.364,-0.351 0.412,-0.916 0.114,-1.323c-0.299,-0.408 -0.852,-0.532 -1.296,-0.291c-13.673,7.426 -46.129,25.052 -71.446,38.801c-0.481,0.261 -1.082,0.091 -1.356,-0.382c-0.273,-0.474 -0.12,-1.08 0.347,-1.366c24.566,-15.051 56.058,-34.345 69.325,-42.474c0.431,-0.263 0.6,-0.805 0.397,-1.267c-0.204,-0.462 -0.718,-0.702 -1.203,-0.563c-12.212,3.51 -37.723,10.844 -57.829,16.623c-0.522,0.15 -1.07,-0.141 -1.238,-0.658c-0.168,-0.517 0.104,-1.075 0.615,-1.26c19.663,-7.142 44.612,-16.205 56.555,-20.543c0.475,-0.172 0.749,-0.669 0.642,-1.162c-0.107,-0.494 -0.562,-0.832 -1.066,-0.792c-15.511,1.222 -52.329,4.123 -81.05,6.386c-0.546,0.043 -1.026,-0.357 -1.083,-0.901c-0.058,-0.544 0.329,-1.034 0.872,-1.106c28.564,-3.758 65.181,-8.575 80.607,-10.605c0.501,-0.066 0.876,-0.491 0.878,-0.996c0.002,-0.505 -0.37,-0.934 -0.87,-1.004c-12.583,-1.76 -38.872,-5.437 -59.59,-8.335c-0.539,-0.075 -0.921,-0.564 -0.864,-1.105c0.057,-0.541 0.532,-0.939 1.075,-0.901c20.867,1.473 47.346,3.342 60.021,4.237c0.504,0.035 0.956,-0.307 1.059,-0.801c0.103,-0.495 -0.175,-0.989 -0.651,-1.157c-14.667,-5.193 -49.483,-17.518 -76.641,-27.133c-0.516,-0.182 -0.792,-0.743 -0.623,-1.263c0.169,-0.52 0.722,-0.811 1.246,-0.656c27.623,8.185 63.034,18.678 77.952,23.098c0.484,0.144 1,-0.092 1.207,-0.553c0.207,-0.46 0.042,-1.003 -0.386,-1.27c-10.78,-6.727 -33.3,-20.778 -51.048,-31.852c-0.462,-0.288 -0.612,-0.89 -0.34,-1.361c0.272,-0.471 0.868,-0.642 1.348,-0.386c18.465,9.833 41.894,22.31 53.109,28.283c0.446,0.237 0.998,0.109 1.293,-0.301c0.296,-0.41 0.242,-0.975 -0.124,-1.322c-11.287,-10.709 -38.079,-36.13 -58.979,-55.959c-0.397,-0.377 -0.422,-1.001 -0.056,-1.408c0.366,-0.406 0.99,-0.447 1.406,-0.092c21.905,18.713 49.987,42.701 61.818,52.807c0.384,0.328 0.951,0.322 1.327,-0.014c0.377,-0.337 0.447,-0.9 0.164,-1.318c-7.112,-10.529 -21.97,-32.526 -33.679,-49.862c-0.305,-0.45 -0.197,-1.061 0.243,-1.381c0.44,-0.32 1.054,-0.233 1.389,0.196c12.868,16.493 29.197,37.421 37.013,47.439c0.311,0.398 0.868,0.505 1.304,0.251c0.436,-0.254 0.618,-0.792 0.424,-1.258c-5.955,-14.374 -20.092,-48.495 -31.119,-75.111c-0.21,-0.505 0.022,-1.085 0.521,-1.308c0.5,-0.222 1.086,-0.006 1.322,0.488c12.401,26.004 28.298,59.341 34.995,73.385c0.217,0.456 0.738,0.681 1.219,0.527c0.48,-0.154 0.773,-0.64 0.685,-1.137c-2.214,-12.512 -6.841,-38.651 -10.487,-59.25c-0.095,-0.536 0.252,-1.05 0.784,-1.163c0.532,-0.113 1.058,0.216 1.189,0.744c5.048,20.301 11.453,46.062 14.519,58.392c0.121,0.49 0.587,0.815 1.088,0.76c0.502,-0.055 0.887,-0.472 0.9,-0.977c0.406,-15.554 1.369,-52.474 2.121,-81.274Z" style="fill:url(#_Linear1);"/><g id="title_nice"><path d="M90.56,105.511c-0.152,0.761 0.152,1.116 0.913,1.116l5.122,0c0.812,0 1.218,-0.355 1.319,-1.116l5.326,-26.069l12.273,26.373c0.305,0.457 0.507,0.812 0.862,0.812l5.427,0c0.812,0 1.319,-0.355 1.471,-1.116l7.506,-35.401c0.152,-0.659 -0.507,-1.116 -1.014,-1.116l-5.123,0c-0.355,0 -0.912,0.153 -1.268,0.761l-4.97,24.548l-11.665,-24.548c-0.203,-0.507 -0.811,-0.761 -1.319,-0.761l-5.984,0c-0.71,0 -1.218,0.508 -1.319,1.116l-7.557,35.401Z" style="fill:#1f7dc1;fill-rule:nonzero;"/><path d="M139.351,82.942c0.152,-0.71 -0.406,-1.217 -1.015,-1.217l-4.26,0c-0.761,0 -1.268,0.507 -1.42,1.217l-4.818,22.518c-0.152,0.761 0.203,1.167 0.963,1.167l4.261,0c0.811,0 1.318,-0.406 1.47,-1.167l4.819,-22.518Zm-5.478,-8.622c-0.456,2.13 0.913,3.854 3.043,3.854c2.232,0 4.26,-1.724 4.717,-3.854c0.456,-2.181 -0.862,-3.906 -3.094,-3.906c-2.13,0 -4.209,1.725 -4.666,3.906Z" style="fill:#1f7dc1;fill-rule:nonzero;"/><path d="M152.537,94.849c-3.651,0 -5.883,-2.637 -5.021,-6.492c0.761,-3.702 4.311,-6.847 8.064,-6.847c1.623,0 3.297,0.71 4.311,1.623c0.254,0.203 0.508,0.355 0.71,0.355c0.355,0 0.66,-0.203 0.913,-0.507l2.688,-3.398c0.102,-0.101 0.254,-0.406 0.305,-0.558c0.101,-0.558 -0.153,-0.913 -0.66,-1.268c-1.978,-1.521 -4.311,-2.485 -6.999,-2.485c-7.151,0 -14.201,5.833 -15.773,13.034c-1.522,7.202 3.145,12.934 10.245,12.934c2.942,0 5.833,-1.116 8.368,-2.587c0.406,-0.254 0.964,-0.558 1.116,-1.167c0,-0.101 -0.05,-0.355 -0.101,-0.557l-1.217,-2.689c-0.203,-0.507 -0.406,-1.014 -0.863,-1.014c-0.202,0 -0.558,0.102 -0.811,0.254c-1.826,0.76 -3.246,1.318 -5.275,1.369Z" style="fill:#1f7dc1;fill-rule:nonzero;"/><path d="M176.216,99.555c-2.488,0.489 -5.308,-0.973 -5.577,-3.918l13.487,-2.649c2.09,-0.411 3.744,-1.201 3.733,-3.628c0.012,-6.515 -4.795,-11.515 -12.111,-10.078c-6.121,1.203 -11.875,8.484 -12.019,15.645c-0.105,7.36 5.588,12.134 12.506,10.775c2.837,-0.557 5.567,-1.92 7.683,-4.042c0.389,-0.386 0.808,-0.882 0.81,-1.399c-0.029,-0.15 -0.078,-0.399 -0.227,-0.628l-1.95,-2.821c-0.267,-0.31 -0.486,-0.37 -0.784,-0.311c-0.349,0.068 -0.808,0.623 -1.356,0.99c-1.297,1.03 -2.792,1.84 -4.195,2.064Zm-5.472,-8.384c0.348,-2.704 2.933,-5.331 5.371,-5.81c2.986,-0.587 5.279,0.824 5.329,3.708l-10.7,2.102Z" style="fill:#1f7dc1;fill-rule:nonzero;"/></g><g id="title_date"><g id="date"><path d="M77.654,155.103c0,4.464 0.256,12.005 0.256,12.313c0,0.718 0.411,1.18 1.129,1.18c0.513,0 0.923,-0.462 0.923,-1.18c0,-0.821 -0.205,-7.593 -0.307,-12.364c0,-1.129 0.051,-2.155 0.051,-2.924c0,-0.667 -0.257,-1.18 -1.026,-1.18c-0.616,0 -0.77,0.307 -2.104,0.872c-2.206,0.923 -2.206,0.975 -3.642,1.488c-0.565,0.205 -0.872,0.564 -0.872,1.077c0,0.77 0.564,1.026 0.974,1.026c0.257,0 0.513,-0.051 0.821,-0.205l3.54,-1.642c0.257,-0.102 0.257,0.051 0.257,0.513l0,1.026Z" style="fill:#fdba2d;fill-rule:nonzero;"/><path d="M87.094,168.596c0.461,0 0.769,-0.102 1.128,-0.308c2.155,-1.282 7.593,-4.514 7.593,-10.979c0,-4.463 -3.334,-6.361 -6.054,-6.361c-4.001,0 -6.259,2.411 -6.259,5.848c0,2.617 1.796,5.387 5.746,5.387c1.642,0 2.771,-0.41 3.694,-1.026c-1.539,3.335 -4.771,5.079 -6.156,5.849c-0.308,0.154 -0.513,0.41 -0.513,0.821c0,0.461 0.359,0.769 0.821,0.769Zm2.154,-8.465c-2.565,0 -3.694,-1.693 -3.694,-3.335c0,-2.514 1.488,-3.796 4.207,-3.796c1.847,0 4.002,1.282 4.002,4.309c0,0.924 -1.282,2.822 -4.515,2.822Z" style="fill:#fdba2d;fill-rule:nonzero;"/><path d="M104.332,165.928c0,-1.436 -1.283,-2.719 -2.668,-2.719c-1.488,0 -2.719,1.129 -2.719,2.719c0,1.54 1.436,2.668 2.719,2.668c1.283,0 2.668,-1.128 2.668,-2.668Z" style="fill:#fdba2d;fill-rule:nonzero;"/><path d="M111.053,155.103c0,4.464 0.256,12.005 0.256,12.313c0,0.718 0.41,1.18 1.129,1.18c0.513,0 0.923,-0.462 0.923,-1.18c0,-0.821 -0.205,-7.593 -0.308,-12.364c0,-1.129 0.052,-2.155 0.052,-2.924c0,-0.667 -0.257,-1.18 -1.026,-1.18c-0.616,0 -0.77,0.307 -2.104,0.872c-2.206,0.923 -2.206,0.975 -3.642,1.488c-0.565,0.205 -0.873,0.564 -0.873,1.077c0,0.77 0.565,1.026 0.975,1.026c0.257,0 0.513,-0.051 0.821,-0.205l3.54,-1.642c0.257,-0.102 0.257,0.051 0.257,0.513l0,1.026Z" style="fill:#fdba2d;fill-rule:nonzero;"/><path d="M126.392,150.896c-4.925,0 -9.132,4.259 -9.132,8.876c0,6.105 5.387,8.824 9.081,8.824c3.745,0 9.183,-3.027 9.183,-8.824c0,-4.617 -4.206,-8.876 -9.132,-8.876Zm0,2.053c3.489,0 7.029,3.232 7.029,6.823c0,4.669 -4.207,6.772 -6.977,6.772c-2.822,0 -7.08,-1.95 -7.08,-6.772c0,-3.489 3.488,-6.823 7.028,-6.823Z" style="fill:#fdba2d;fill-rule:nonzero;"/><path d="M144.041,165.928c0,-1.436 -1.283,-2.719 -2.668,-2.719c-1.488,0 -2.719,1.129 -2.719,2.719c0,1.54 1.437,2.668 2.719,2.668c1.283,0 2.668,-1.128 2.668,-2.668Z" style="fill:#fdba2d;fill-rule:nonzero;"/><path d="M151.531,166.339c-0.308,0 -0.359,0 -0.359,-0.103c0,-0.102 0.359,-0.256 0.77,-0.564c1.18,-0.924 6.464,-4.566 6.464,-9.235c0,-3.232 -2.103,-5.489 -6.464,-5.489c-1.745,0 -2.925,0.513 -3.848,0.974c-0.41,0.206 -0.821,0.513 -0.821,1.078c0,0.667 0.462,0.923 0.821,0.923c0.308,0 0.359,-0.051 0.718,-0.205c0.77,-0.308 1.591,-0.718 3.13,-0.718c3.027,0 4.361,1.128 4.361,3.437c0,5.028 -7.286,8.978 -8.312,9.953c-0.41,0.359 -0.667,0.564 -0.667,0.975c0,0.667 0.36,1.026 1.54,1.026c0,0 4.155,-0.051 4.925,-0.051c1.385,0 4.104,0.051 4.104,0.051c0.77,0 1.026,-0.564 1.026,-0.975c0,-0.718 -0.41,-1.077 -1.026,-1.077c0,0 -2.257,-0.051 -3.848,-0.051c-1.488,0 -2.206,0.051 -2.514,0.051Z" style="fill:#fdba2d;fill-rule:nonzero;"/><path d="M191.035,155.103c0,4.464 0.257,12.005 0.257,12.313c0,0.718 0.41,1.18 1.129,1.18c0.513,0 0.923,-0.462 0.923,-1.18c0,-0.821 -0.205,-7.593 -0.308,-12.364c0,-1.129 0.052,-2.155 0.052,-2.924c0,-0.667 -0.257,-1.18 -1.027,-1.18c-0.615,0 -0.769,0.307 -2.103,0.872c-2.206,0.923 -2.206,0.975 -3.643,1.488c-0.564,0.205 -0.872,0.564 -0.872,1.077c0,0.77 0.565,1.026 0.975,1.026c0.257,0 0.513,-0.051 0.821,-0.205l3.54,-1.642c0.256,-0.102 0.256,0.051 0.256,0.513l0,1.026Z" style="fill:#fdba2d;fill-rule:nonzero;"/><path d="M197.294,163.62c0,3.591 2.822,4.976 6.106,4.976c3.283,0 6.259,-1.539 6.259,-4.976c0,-2.514 -1.591,-3.745 -3.232,-4.31c1.282,-0.615 2.411,-1.744 2.411,-3.591c0,-3.386 -2.668,-4.771 -5.438,-4.771c-2.771,0 -5.285,1.385 -5.285,4.771c0,1.796 1.078,2.924 2.309,3.54c-1.642,0.564 -3.13,1.744 -3.13,4.361Zm6.157,-3.13c1.488,0 4.104,0.359 4.104,3.13c0,2.052 -2.052,2.924 -4.155,2.924c-2.104,0 -4.002,-0.872 -4.002,-2.924c0,-2.873 2.514,-3.13 4.053,-3.13Zm0,-2.052c-1.231,0 -3.284,-0.667 -3.284,-2.77c0,-1.847 1.591,-2.719 3.233,-2.719c1.693,0 3.386,0.872 3.386,2.719c0,2.103 -2.155,2.77 -3.335,2.77Z" style="fill:#fdba2d;fill-rule:nonzero;"/></g><path id="icon_wp" d="M165.287,162.254c1.187,4.259 5.133,7.319 9.558,6.086c4.83,-1.346 7.509,-5.319 6.248,-9.844c-1.279,-4.592 -4.858,-8.291 -9.182,-7.087c-5.607,1.563 -8.079,5.622 -6.624,10.845Zm10.506,4.933c-0.261,-0.357 -0.472,-0.973 -0.724,-1.691l-2.351,-6.544c-0.082,2.544 -0.166,6.467 -0.204,7.219c-0.035,0.724 -0.084,1.205 -0.219,1.524c0.841,0.111 1.709,0.055 2.573,-0.186c0.317,-0.088 0.626,-0.196 0.925,-0.322Zm2.464,-12.481c-0.214,2.235 -0.884,9.258 -0.955,10.2c-0.063,0.489 -0.101,1.085 -0.205,1.584c2.507,-1.657 4.007,-4.69 3.124,-7.859c-0.48,-1.593 -1.145,-2.912 -1.964,-3.925Zm-2.114,-1.765c-1.337,-0.689 -2.892,-0.829 -4.595,-0.355c-3.294,0.918 -5.212,2.886 -5.755,5.279c0.058,-0.025 0.125,-0.048 0.203,-0.069c0,0 0.77,-0.182 1.977,-0.501c0.402,-0.107 0.565,0.02 0.606,0.179c0.074,0.277 -0.045,0.478 -0.669,0.643c0,0 -0.267,0.049 -0.508,0.113c0.993,2.133 3.565,8.032 3.905,8.748c0.2,0.435 0.237,0.573 0.277,0.563c0.081,-0.021 0.054,-0.205 0.085,-0.659c0.067,-0.887 0.17,-7.104 0.321,-9.222c0.031,-0.453 0.19,-0.75 0.431,-0.813c0.241,-0.064 0.423,-0.027 0.609,0.432c0.789,1.848 2.669,7.669 3.004,8.45c0.17,0.4 0.197,0.584 0.278,0.562c0.04,-0.01 0.044,-0.16 0.084,-0.658c0.083,-0.828 0.629,-6.809 0.886,-9.287c0.158,-1.526 -1.629,-1.481 -1.231,-3.175c0.021,-0.09 0.052,-0.166 0.092,-0.23Zm-10.481,5.748c-0.082,0.879 0.007,1.801 0.269,2.741c0.78,2.799 2.484,4.81 4.541,5.741c-0.063,-0.132 -0.126,-0.27 -0.191,-0.409c-0.391,-0.83 -2.879,-6.412 -3.699,-8.294l-0.92,0.221Z" style="fill:#fdba2d;stroke:#fdba2d;stroke-width:0.4px;"/><g id="icon_sun"><path d="M173.212,170.394c0.479,0.094 0.714,0.741 0.798,1.226c0.301,1.745 -0.064,4.267 -1.087,4.163c-0.504,-0.052 -0.633,-0.86 -0.675,-1.331c-0.1,-1.116 -0.045,-2.214 0.09,-3.361c0.062,-0.45 0.471,-0.762 0.874,-0.697Z" style="fill:#fdba2d;"/><path d="M165.431,170.001c0.814,-0.107 1.305,0.823 0.155,2.186c-0.263,0.311 -0.539,0.612 -0.785,0.931c0,0 -0.124,0.163 -0.273,0.241c-0.573,0.302 -1.473,-0.273 -1.211,-0.988c0.327,-0.893 1.071,-1.724 1.813,-2.241c0.091,-0.063 0.192,-0.113 0.301,-0.129Z" style="fill:#fdba2d;"/><path d="M179.302,167.969c1.082,0.034 1.992,1.53 2.364,2.711c0.223,0.712 -0.592,1.67 -1.616,0.55c-0.576,-0.632 -1.11,-1.327 -1.475,-2.1c-0.225,-0.476 0.096,-1.121 0.663,-1.16c0.021,-0.001 0.043,-0.001 0.064,-0.001Z" style="fill:#fdba2d;"/><path d="M174.219,151.017c1.544,0.018 3.068,0.581 4.244,1.624c2.46,2.181 3.319,5.804 3.077,8.793c-0.207,2.568 -1.699,4.966 -4.06,6.26c-3.549,1.945 -8.342,1.706 -11.073,-1.682c-3.362,-4.171 -2.583,-11.292 2.406,-13.845c1.621,-0.829 3.47,-1.137 5.279,-1.15c0.042,0 0.084,0 0.127,0Zm-0.785,1.861c-0.223,0.002 -0.446,0.009 -0.669,0.022c-2.364,0.145 -4.78,1.186 -5.929,3.31c-0.921,1.702 -0.962,3.785 -0.475,5.698c0.772,3.035 3.443,5.589 6.839,5.353c3.443,-0.238 6.645,-3.04 6.659,-6.661c-0.061,-2.662 -0.76,-5.466 -3.131,-6.894c-0.979,-0.589 -2.139,-0.829 -3.294,-0.828Z" style="fill:#fdba2d;"/><path d="M159.116,162.138c1.123,-0.208 2.322,-0.613 3.34,-0.474c0.695,0.096 0.912,1.155 0.138,1.549c-0.975,0.496 -2.259,0.62 -3.239,0.518c-0.444,-0.047 -0.867,-0.359 -0.855,-0.785c0.011,-0.367 0.142,-0.705 0.616,-0.808Z" style="fill:#fdba2d;"/><path d="M185.252,159.394c1.377,0.012 3.225,0.162 3.131,1.242c-0.08,0.922 -1.688,0.653 -2.902,0.592c-0.365,-0.018 -0.731,-0.03 -1.096,-0.037c-0.208,-0.004 -0.416,-0.007 -0.625,-0.008c-0.162,-0.001 -0.392,-0.002 -0.392,-0.002c-0.698,-0.049 -1.167,-1.106 -0.242,-1.503c0.649,-0.278 1.404,-0.286 2.126,-0.284Z" style="fill:#fdba2d;"/><path d="M161.358,150.466c1.165,0.02 2.198,1.249 2.808,2.27c0.464,0.777 -0.064,2.04 -1.552,0.856c-0.736,-0.586 -1.52,-1.172 -2.031,-1.937c-0.31,-0.465 0.095,-1.195 0.775,-1.189Z" style="fill:#fdba2d;"/><path d="M184.156,149.658c0.472,-0.015 0.959,0.363 0.895,0.85c-0.114,0.862 -1.282,1.375 -2.315,1.961c-0.721,0.409 -1.854,0.867 -1.972,-0.25c-0.07,-0.661 0.787,-1.189 1.526,-1.706c0.58,-0.405 1.141,-0.816 1.866,-0.855Z" style="fill:#fdba2d;"/><path d="M172.808,143.817c0.662,0.032 0.809,0.957 0.866,1.468c0.13,1.145 0.057,2.304 0.055,3.459c0,0 -0.315,1.11 -1.141,0.814c-0.302,-0.108 -0.522,-0.401 -0.566,-0.724c0,0 -0.173,-3.399 -0.023,-4.159c0.08,-0.405 0.236,-0.872 0.809,-0.858Z" style="fill:#fdba2d;"/></g></g><g id="title_wordcamp"><path d="M77.365,110.146c-0.907,8.954 -6.007,25.9 -8.784,25.9c-2.72,0 1.077,-15.642 2.89,-22.556c0.68,-2.607 -5.724,-2.437 -6.007,-1.474c-0.623,2.211 -1.247,4.647 -1.814,7.198c-2.72,6.857 -7.254,16.832 -10.087,16.832c-3.571,0 2.097,-15.075 4.023,-21.196c2.097,-6.517 0.114,-11.731 -5.78,-11.731c-7.424,0 -12.185,9.181 -12.185,13.261c0,4.704 4.477,5.327 4.477,3.117c0,-4.534 4.477,-13.715 7.821,-13.715c2.21,0 0.567,3.967 -0.623,7.878c-2.267,7.141 -10.768,27.316 0.396,27.316c4.761,0 8.558,-6.461 10.315,-11.845c-0.567,6.631 0.34,11.845 4.704,11.845c9.521,0 15.188,-19.382 17.738,-30.83c0.85,-3.74 -6.63,-4.25 -7.084,0Z" style="fill:#41bfb7;fill-rule:nonzero;"/><path d="M120.777,128.735c-0.284,-0.567 -0.964,-0.624 -1.304,-0.114c-1.247,1.984 -3.854,5.894 -5.327,5.894c-3.174,0 3.173,-14.905 3.684,-16.265c0.736,-1.927 -2.324,-3.57 -4.364,-2.38c-1.757,0.963 -3.231,1.587 -4.421,1.7c1.644,-4.08 2.211,-5.78 2.211,-8.217c0,-1.757 -0.794,-3.061 -1.871,-3.061c-2.04,0 -5.157,3.911 -5.157,8.161c0,1.247 0.453,3.231 1.644,4.591l0.056,0.056c-1.303,2.097 -3.003,4.308 -5.1,5.498c1.303,-6.348 -0.454,-10.258 -3.797,-10.258c-2.097,0 -3.741,1.133 -4.874,2.664c-0.624,-1.077 -1.7,-1.814 -2.72,-1.417c-3.514,1.587 -7.481,9.917 -7.481,17.398c0,5.271 2.267,7.991 6.29,7.991c3.911,0 8.615,-3.797 11.562,-12.581c0.17,-0.454 0.283,-0.907 0.396,-1.304l0,-0.056c2.947,-0.964 5.498,-3.287 7.708,-6.688c0.397,0.114 0.793,0.17 1.247,0.17c0.736,0 1.303,-0.056 1.7,-0.226c-1.87,4.59 -4.194,12.071 -4.194,16.605c0,2.493 0.85,4.08 2.834,4.08c4.647,0 10.087,-9.294 11.221,-11.391c0.17,-0.284 0.17,-0.624 0.057,-0.85Zm-26.637,-0.51c-1.87,5.27 -4.477,9.351 -6.12,8.557c-1.474,-0.736 -0.794,-6.177 0.963,-10.598c0.567,-1.473 1.19,-2.89 1.757,-3.967c0.283,2.041 1.53,4.024 3.797,4.931c-0.113,0.34 -0.227,0.737 -0.397,1.077Zm0.907,-3.231c-1.587,-0.85 -2.38,-2.607 -2.38,-4.59c0,-1.417 0.85,-2.607 1.927,-2.04c0.906,0.453 1.19,3.23 0.453,6.63Z" style="fill:#41bfb7;fill-rule:nonzero;"/><path d="M143.786,104.932c0.906,-2.323 -4.137,-4.477 -5.498,-1.247c-1.813,4.308 -3.627,9.408 -5.213,14.339c-0.171,-1.927 -1.304,-3.684 -3.628,-3.684c-3.91,0 -8.33,3.854 -10.881,12.638c-2.437,8.501 -0.453,13.998 3.457,13.998c3.004,0 5.158,-2.38 6.518,-4.59c-0.057,0.226 -0.057,0.396 -0.057,0.566c0,2.437 0.907,4.024 2.89,4.024c4.647,0 10.031,-9.294 11.222,-11.391c0.113,-0.284 0.17,-0.624 0,-0.85c-0.227,-0.567 -0.907,-0.624 -1.247,-0.114c-1.247,1.984 -3.854,5.894 -5.328,5.894c-1.076,0 -0.906,-1.87 -0.113,-5.214c2.324,-9.464 4.704,-16.548 7.878,-24.369Zm-19.496,32.02c-1.19,-0.623 -0.793,-5.27 0.964,-10.427c1.757,-5.158 4.193,-8.841 5.384,-8.275c1.246,0.624 0.793,5.328 -0.964,10.485c-1.757,5.157 -4.137,8.841 -5.384,8.217Z" style="fill:#41bfb7;fill-rule:nonzero;"/><path d="M157.33,116.153c-0.623,3.061 4.591,4.364 5.894,1.587c3.004,-6.404 2.551,-14.508 -5.27,-14.508c-7.481,0 -18.022,13.715 -18.022,26.863c0,7.934 4.93,10.881 9.294,10.881c7.028,0 11.561,-6.744 12.638,-11.278c0.85,-3.287 -2.72,-5.44 -3.4,-3.343c-2.04,6.234 -5.951,10.767 -8.614,10.767c-2.041,0 -3.344,-2.097 -3.344,-6.347c0,-11.958 9.748,-25.163 12.865,-25.163c1.87,0 -1.134,5.781 -2.041,10.541Z" style="fill:#41bfb7;fill-rule:nonzero;"/><path d="M188.84,128.735c-0.283,-0.567 -0.963,-0.624 -1.303,-0.114c-1.247,1.984 -3.854,5.894 -5.327,5.894c-3.174,0 3.173,-14.905 3.683,-16.265c0.907,-2.323 -3.797,-4.25 -5.44,-1.246c-0.397,0.68 -0.85,1.7 -1.36,2.946c0.51,-2.55 -0.397,-5.61 -3.514,-5.61c-3.91,0 -8.331,3.854 -10.881,12.638c-2.437,8.501 -0.453,13.998 3.457,13.998c3.06,0 5.214,-2.437 6.574,-4.704c0,0.227 0,0.454 0,0.624c0,2.493 0.85,4.08 2.834,4.08c4.647,0 10.031,-9.294 11.221,-11.391c0.17,-0.284 0.17,-0.624 0.056,-0.85Zm-18.418,8.217c-1.19,-0.623 -0.794,-5.27 0.963,-10.427c1.757,-5.158 4.194,-8.841 5.384,-8.275c1.247,0.624 0.794,5.328 -0.963,10.485c-1.757,5.157 -4.137,8.841 -5.384,8.217Z" style="fill:#41bfb7;fill-rule:nonzero;"/><path d="M220.974,128.735c-0.227,-0.567 -0.964,-0.624 -1.247,-0.114c-1.247,1.984 -3.854,5.894 -5.327,5.894c-2.267,0 0.567,-7.82 2.21,-12.694c1.02,-3.117 0.397,-7.481 -3.06,-7.481c-2.664,0 -5.327,2.947 -7.424,6.517c0.566,-2.947 -0.17,-6.517 -3.287,-6.517c-2.494,0 -5.101,2.664 -7.141,6.064c0.283,-0.85 0.51,-1.587 0.737,-2.154c0.906,-2.323 -3.911,-4.363 -5.441,-1.246c-1.7,3.457 -5.497,17.058 -5.497,20.175c0,3.627 4.704,5.044 5.1,2.55c0.34,-1.927 1.19,-5.667 2.267,-9.577c1.417,-4.251 4.987,-9.635 6.461,-9.635c0.737,0 0.17,2.38 -0.17,3.571c-1.53,5.1 -3.004,11.164 -3.004,13.091c0,3.627 4.704,5.044 5.101,2.55c0.283,-1.813 1.133,-5.384 2.097,-9.067c1.303,-4.364 5.157,-10.145 6.687,-10.145c0.737,0 0.17,2.38 -0.17,3.571c-1.303,4.25 -3.004,9.407 -3.004,12.808c0,2.493 0.85,4.08 2.834,4.08c4.704,0 10.088,-9.294 11.278,-11.391c0.113,-0.284 0.113,-0.624 0,-0.85Z" style="fill:#41bfb7;fill-rule:nonzero;"/><path d="M242.963,128.735c-0.283,-0.567 -0.85,-0.85 -1.19,-0.284c-1.7,3.174 -5.497,7.821 -9.465,9.068c1.814,-2.097 3.571,-5.101 4.931,-9.124c2.89,-8.558 1.19,-14.055 -2.777,-14.055c-2.437,0 -4.42,1.643 -5.894,3.457c0.057,-2.097 -4.307,-3.627 -5.554,-0.68c-4.137,9.748 -9.294,30.036 -9.294,31.567c0,3.57 4.704,5.043 5.1,2.55c0.34,-2.21 1.644,-7.764 3.457,-14.225c0,2.04 1.02,3.967 3.457,3.967c9.011,0.51 15.302,-7.877 17.229,-11.334c0.113,-0.284 0.113,-0.681 0,-0.907Zm-18.249,8.331c-1.19,-0.624 -0.51,-5.328 1.474,-10.485c2.04,-5.157 4.647,-8.841 5.837,-8.217c1.19,0.623 0.51,5.27 -1.473,10.427c-2.041,5.158 -4.648,8.898 -5.838,8.275Z" style="fill:#41bfb7;fill-rule:nonzero;"/></g><g id="title_the"><g><path d="M73.012,65.424c0.057,0.551 -0.735,1.07 -2.626,1.268c-3.087,0.325 -7.661,-0.84 -7.839,4.139c-0.017,0.534 0.87,0.683 0.817,0.18c-0.098,-0.933 1.145,-1.306 2.102,-1.406c0.311,-0.033 0.838,-0.088 1.101,-0.116c-1.153,3.993 -2.257,10.061 -2.121,11.353c0.158,1.508 2.329,1.909 2.386,0.838c0.099,-1.825 0.983,-7.459 2.03,-11.077c0.13,-0.377 -0.139,-0.857 -0.538,-1.202c1.133,-0.046 1.98,-0.039 2.89,-0.134c2.465,-0.259 2.83,-3.225 2.765,-3.848c-0.066,-0.622 -1.025,-0.545 -0.967,0.005Z" style="fill:#f59995;fill-rule:nonzero;"/><path d="M79.698,75.634c-0.121,-0.229 -0.411,-0.223 -0.532,0.007c-0.438,0.893 -1.365,2.66 -1.988,2.726c-0.957,0.1 -0.107,-3.328 0.37,-5.459c0.293,-1.362 -0.164,-3.177 -1.624,-3.023c-1.173,0.123 -2.202,1.61 -2.943,3.309c0.421,-2.439 0.971,-5.038 1.568,-7.181c0.28,-1.022 -1.921,-1.71 -2.352,-0.285c-1.532,5 -2.721,13.254 -2.582,14.571c0.161,1.531 2.21,1.921 2.267,0.85c0.03,-0.632 0.179,-1.978 0.434,-3.699l0.002,0.024c0.285,-1.893 1.726,-4.754 2.397,-4.825c0.311,-0.033 0.201,0.995 0.086,1.515c-0.362,1.853 -0.851,4.106 -0.7,5.542c0.111,1.053 0.564,1.683 1.402,1.595c1.962,-0.206 3.823,-4.37 4.233,-5.308c0.035,-0.125 0.044,-0.271 -0.038,-0.359Z" style="fill:#f59995;fill-rule:nonzero;"/><path d="M87.763,74.786c-0.145,-0.227 -0.464,-0.266 -0.558,-0.014c-0.424,1.037 -2.162,3.833 -4.172,4.044c-0.934,0.098 -1.548,-0.684 -1.671,-1.857c-0.026,-0.239 -0.027,-0.481 -0.028,-0.723c2.603,0.597 5.148,-1.896 4.859,-4.648c-0.176,-1.675 -1.606,-2.614 -2.85,-2.483c-2.657,0.279 -5.039,4.086 -4.609,8.179c0.259,2.464 2.01,3.466 3.781,3.28c2.943,-0.309 4.653,-4.07 5.264,-5.392c0.038,-0.101 0.042,-0.295 -0.016,-0.386Zm-4.199,-4.035c0.263,-0.027 0.483,0.216 0.515,0.527c0.169,1.603 -1.359,3.869 -2.672,3.813c0.322,-2.235 1.463,-4.267 2.157,-4.34Z" style="fill:#f59995;fill-rule:nonzero;"/></g><path d="M89.4,80.828l0.029,0.342c-0.347,0.416 -0.568,0.444 -0.803,0.572c-2.883,1.591 -5.193,4.098 -8.389,4.957c-0.928,0.249 -1.889,0.344 -2.849,0.372c-0.286,0.008 -1.523,-0.034 -2.167,-0.106c-0.51,-0.056 -1.017,-0.135 -1.523,-0.226c-2.638,-0.472 -5.271,-1.309 -8.105,-0.796c-1.607,0.291 -3.129,0.959 -4.53,1.815l-0.337,0.053l-0.278,-0.202l-0.052,-0.334l0.197,-0.275c3.124,-1.938 6.641,-2.852 10.855,-2.354l0.068,0.008c1.929,0.263 3.903,0.609 5.751,0.697c1.623,0.077 3.688,-0.163 5.535,-1.175c2.034,-1.114 3.928,-2.478 5.998,-3.537l0.341,-0.028c0.086,0.072 0.173,0.145 0.259,0.217Z" style="fill:#f59995;fill-rule:nonzero;"/><path d="M90.51,56.672c0,0 0.012,0.343 0.012,0.343c-0.388,0.419 -0.625,0.431 -0.883,0.556c-3.009,1.47 -5.46,4.083 -8.466,4.943c-2.371,0.678 -5.089,0.33 -7.148,-0.101c-3.401,-0.72 -6.932,-1.292 -10.398,0.366c-0.503,0.24 -0.989,0.512 -1.464,0.802l-0.337,0.053c0,0 -0.278,-0.201 -0.278,-0.201l-0.051,-0.334l0.196,-0.276c3.136,-1.945 6.709,-2.84 10.675,-2.375c2.666,0.312 5.325,1.134 8.305,0.618c2.467,-0.427 4.46,-2.142 6.804,-3.407c0.8,-0.432 1.615,-0.834 2.444,-1.207c0,0 0.341,-0.01 0.341,-0.01c0.083,0.077 0.166,0.153 0.248,0.23Z" style="fill:#f59995;fill-rule:nonzero;"/></g><path id="icon_palmtree" d="M41.151,48.394c-2.067,0.967 -3.76,2.816 -5.092,4.727c-0.393,0.564 -0.742,1.259 -0.742,1.259c-0.322,0.4 -0.926,0.22 -0.925,-0.582c0.004,-1.991 0.189,-3.985 0.731,-5.893c0,0 -0.576,0.489 -0.945,0.829c-1.821,1.676 -3.906,3.301 -4.883,5.555c-0.091,0.21 -0.05,0.209 -0.116,0.322c-0.218,0.37 -0.936,0.256 -0.939,-0.281c0,-0.093 0.12,-3.439 1.148,-5.854l0.532,-1.169l0.76,-1.319c0.039,-0.07 0.078,-0.139 0.118,-0.209c1.043,-1.799 2.228,-3.59 3.742,-4.914c-2.975,0.449 -6.093,1.294 -8.463,2.957c-0.376,0.263 -0.774,0.754 -0.774,0.754c-0.345,0.333 -1.03,0.127 -0.837,-0.586c0.653,-2.402 2.752,-4.414 4.726,-5.946c2.5,-1.939 5.593,-3.224 8.857,-3.007l0.024,0.002c-1.479,-1.207 -3.144,-2.182 -4.894,-2.938c0,0 -0.257,-0.147 -0.297,-0.377c-0.046,-0.27 0.134,-0.534 0.453,-0.589c4.46,-0.399 9.229,-0.181 12.619,2.931c0.189,0.173 0.155,0.454 0.591,0.091c4.257,-3.474 11.527,-2.896 15.363,1.305c0.427,0.468 0.377,1.161 -0.718,0.909c-2.99,-0.669 -6.194,-0.56 -8.996,0.619c0,0 1.277,0.128 2.276,0.309c4.294,0.779 8.138,3.49 10.009,7.626c0.276,0.611 0.106,1.52 -0.746,0.859c-0.96,-0.718 -2.226,-1.009 -3.462,-1.354c-2.586,-0.719 -5.307,-1.37 -7.892,-0.99c-0.378,0.056 -0.91,-0.234 -0.401,0.59c1.974,3.204 3.056,6.462 2.783,10.258c-0.031,0.44 -0.672,0.859 -1.03,0.093c-0.267,-0.573 -0.804,-1.406 -1.487,-2.365c-1.442,-2.026 -3.156,-4.028 -5.225,-5.054c0,0 0.077,0.148 0.155,0.304c0.901,1.811 1.144,3.89 1.186,5.919c0.027,1.308 -0.663,0.862 -0.903,0.594c-1.501,-1.985 -3.062,-4.023 -5.07,-5.389c-0.075,-0.051 -0.166,-0.107 -0.25,-0.156c0.036,0.209 -0.007,0.466 -0.03,0.696c-0.57,5.6 -0.238,11.285 0.332,16.919c1.026,10.12 5.072,23.856 6.314,28.873c0.168,0.679 0.216,1.382 -0.409,1.57c-0.296,0.09 -0.999,-0.014 -1.299,-1.102c-3.013,-10.964 -6.337,-26.778 -6.2,-41.072c0.019,-1.914 0.077,-3.846 0.306,-5.724Zm-9.319,-7.973c0.312,-0.083 0.625,-0.162 0.94,-0.236c0.255,-0.059 0.511,-0.115 0.767,-0.167c1.228,-0.246 3.003,-0.659 2.989,0.462c0,0 -0.148,0.358 -0.529,0.57c-2.024,1.145 -3.359,3.49 -4.441,5.435l-0.752,1.305l-0.494,1.092c-0.447,1.05 -0.67,2.183 -0.839,3.316c0,0 1.018,-1.191 1.856,-2.071c1.309,-1.376 2.604,-2.943 4.209,-3.765c0.438,-0.225 1.284,-0.097 0.932,0.736c-0.07,0.167 -0.049,0.119 -0.078,0.194c-0.605,1.562 -0.827,3.254 -0.937,4.936c0,0 1.015,-1.305 1.898,-2.181c1.271,-1.261 3.001,-2.832 4.377,-2.964c0.702,-0.067 1.024,0.295 1.66,0.792c1.409,1.1 2.589,2.474 3.734,3.859l0.167,0.204c-0.153,-1.944 -0.55,-3.953 -1.816,-5.431c0,0 -0.252,-0.272 -0.175,-0.546c0.278,-0.996 2.66,0.117 4.423,1.685c1.609,1.431 2.992,3.123 4.124,4.961c-0.198,-3.181 -1.424,-6.329 -3.285,-8.888c0,0 -0.385,-0.519 0.437,-0.925c1.34,-0.66 3.002,-0.495 4.592,-0.317c2.545,0.286 5.08,0.844 7.44,1.813c-2.114,-3.799 -6.328,-5.912 -10.864,-6.264c-0.768,-0.06 -1.851,-0.106 -1.851,-0.106c-0.499,-0.072 -0.635,-0.682 -0.043,-1.06c0.167,-0.106 0.337,-0.207 0.51,-0.304c2.761,-1.534 6.119,-1.873 9.306,-1.414c-3.231,-2.579 -8.171,-2.937 -11.788,-0.953c-0.613,0.336 -1.185,0.753 -1.665,1.263c0,0 -0.448,0.277 -1.047,-0.336c-2.551,-2.594 -6.661,-3.195 -10.216,-3.096c0,0 3.12,1.789 4.625,3.416c0,0 0.42,1.036 -0.653,0.802c-0.45,-0.095 -0.525,-0.101 -0.774,-0.134c-3.78,-0.502 -7.65,1.466 -10.299,4.089c-0.693,0.686 -1.33,1.43 -1.883,2.234c0,0 1.439,-0.693 2.718,-1.155c0.896,-0.323 1.803,-0.603 2.725,-0.851Z" style="fill:#b3d234;fill-rule:nonzero;"/><path id="icon_bikini" d="M256.587,174.801c-0.815,-0.455 -1.541,0.073 -1.909,0.733c-0.59,1.058 -0.359,1.869 0.422,2.304c1.788,0.996 2.039,1.932 1.053,3.702c-0.677,1.215 0.442,1.861 1.379,2.383c1.093,0.609 2.027,1.016 2.742,-0.269c0.996,-1.787 2.75,-1.629 3.6,-1.155c0.955,0.532 1.827,0.517 2.504,-0.698c0.29,-0.52 0.856,-1.456 -0.133,-2.007c-1.215,-0.676 -3.302,-1.134 -4.899,-2.024c-1.527,-0.851 -3.457,-2.244 -4.759,-2.969Zm-0.282,0.752c1.406,0.783 3.127,2.061 4.654,2.911c1.701,0.948 4.014,1.531 4.795,1.967c0.451,0.251 0.104,0.671 -0.08,1.001c-0.329,0.59 -0.825,0.746 -1.328,0.465c-1.736,-0.967 -3.519,-0.868 -4.766,1.37c-0.348,0.625 -0.95,0.358 -1.661,-0.038c-0.625,-0.348 -1.362,-0.781 -1.072,-1.302c1.151,-2.065 1.017,-3.459 -1.343,-4.773c-0.364,-0.204 -0.565,-0.497 -0.151,-1.199c0.193,-0.347 0.483,-0.663 0.952,-0.402Zm-9.325,-12.449c0.434,0.241 1.477,-0.815 3.004,0.036c1.458,0.812 1.942,2.924 3.591,3.842c1.232,0.687 2.675,0.627 3.929,1.234c0.314,0.539 0.971,1.36 2.22,2.056c2.1,1.17 3.492,1.285 3.492,1.285c0.088,0.004 0.7,0.049 1.151,0.3c0.243,0.136 0.477,0.289 0.69,0.476c0.374,0.39 1.18,1.067 2.551,1.83c1.319,0.735 2.373,0.844 2.961,0.808c1.209,0.606 2.519,0.744 3.665,1.383c1.406,0.783 2.088,2.619 3.598,3.46c1.285,0.715 2.996,0.623 3.277,0.119c0.106,-0.191 0.07,-0.37 -0.121,-0.476c-0.451,-0.252 -1.346,0.455 -2.769,-0.337c-1.51,-0.842 -2.141,-2.648 -3.598,-3.461c-1.007,-0.56 -2.093,-0.733 -3.108,-1.117c-0.193,-1.245 -0.633,-4.742 -0.217,-5.488c0.976,-1.753 0.716,-3.694 1.538,-5.169c0.928,-1.666 2.652,-1.821 4.04,-1.047c0.226,0.125 0.434,0.037 0.541,-0.154c0.106,-0.191 0.071,-0.415 -0.119,-0.521c-1.788,-0.996 -3.967,-0.8 -5.156,1.335c-0.928,1.666 -0.606,3.619 -1.548,5.187c-0.576,0.952 -4.902,2.227 -5.838,2.478c-0.347,-0.193 -0.797,-0.284 -1.071,-0.323c-0.367,-1.342 -1.352,-5.165 -0.869,-6.033c0.958,-1.718 2.51,-2.423 3.602,-4.384c1.219,-2.187 0.481,-3.394 -0.751,-4.08c-1.389,-0.774 -3.078,0.014 -3.407,0.604c-0.106,0.191 -0.097,0.378 0.112,0.494c0.486,0.271 1.398,-1.245 2.908,-0.404c0.851,0.474 1.353,1.368 0.444,2.999c-1.141,2.048 -2.741,2.839 -3.602,4.384c-0.444,0.798 -4.155,2.438 -4.999,2.809c-1.105,-0.342 -2.274,-0.448 -3.159,-0.941c-1.614,-0.899 -1.925,-2.914 -3.591,-3.842c-1.284,-0.716 -3.147,-0.434 -3.485,0.173c-0.077,0.139 -0.114,0.369 0.094,0.485Zm23.687,11.08c-0.446,0.025 -1.422,-0.019 -2.672,-0.715c-1.423,-0.793 -2.125,-1.411 -2.414,-1.708c1.181,-0.366 3.465,-1.118 4.799,-1.921c-0.076,1.322 0.139,3.262 0.287,4.344Zm-8.743,-8.554c0.012,1.53 0.567,3.84 0.885,5.064c-0.528,-0.113 -1.448,-0.42 -2.698,-1.117c-1.301,-0.725 -1.835,-1.522 -2.031,-1.905c1.007,-0.461 2.753,-1.308 3.844,-2.042Z" style="fill:#b3d234;"/><path id="icon_heart" d="M23.848,166.77c0.155,-0.005 0.301,-0.127 0.313,-0.261c0.03,-0.324 -0.197,-1.617 -0.373,-2.423l1.178,0.591c0.143,0.745 0.342,2.979 0.819,3.023c0.172,0.016 0.318,-0.106 0.332,-0.259c0.03,-0.324 -0.199,-1.598 -0.359,-2.364l1.178,0.591c0.14,0.783 0.345,2.94 0.785,2.981c0.171,0.016 0.337,-0.104 0.351,-0.257c0.018,-0.402 -0.338,-2.188 -0.474,-2.798c0.697,-0.456 2.558,-1.209 2.594,-1.591c0.015,-0.172 -0.163,-0.323 -0.316,-0.337c-0.457,-0.062 -1.51,0.708 -2.628,1.337c-0.295,-0.143 -0.68,-0.352 -1.179,-0.591c0.831,-0.443 2.135,-0.997 2.168,-1.36c0.016,-0.172 -0.182,-0.325 -0.315,-0.337c-0.459,-0.043 -1.509,0.689 -2.588,1.321l-1.179,-0.59c0.829,-0.425 2.094,-0.982 2.126,-1.326c0.016,-0.172 -0.142,-0.341 -0.295,-0.355c-0.458,-0.042 -1.506,0.67 -2.567,1.305l-2.909,-1.463c1.171,-1.626 2.051,-3.433 2.236,-5.439c0.219,-2.368 -1.236,-4.14 -3.318,-4.333c-2.235,-0.206 -3.6,1.229 -4.216,3.098c-0.084,-3.051 -1.304,-5.071 -4.208,-5.339c-2.77,-0.256 -4.715,1.202 -5.206,4.644c-2.246,-1.132 -3.996,-2.007 -4.713,-2.381c0.752,-0.624 2.818,-1.301 2.851,-1.664c0.014,-0.152 -0.013,-0.271 -0.243,-0.292c-0.382,-0.035 -3.628,1.322 -3.688,1.972c-0.065,0.706 0.507,3.9 1.023,3.947c0.191,0.018 0.304,-0.164 0.318,-0.317c0.051,-0.554 -0.584,-2.019 -0.578,-2.924c0.755,0.378 2.579,1.278 4.954,2.48c-0.235,4.217 3.403,9.041 6.199,12.363c0.294,0.354 0.815,0.768 1.369,0.82c1.07,0.098 1.966,-1.052 2.62,-1.666c1.372,-1.299 2.892,-2.738 4.158,-4.355c1.07,0.522 2.062,1.038 2.965,1.487c0.112,0.666 0.319,3.016 0.815,3.062Zm-12.922,-9.651c0.019,-0.21 -0.1,-0.375 -0.34,-0.494c-1.456,-0.712 -2.819,-1.396 -4.051,-2.03c0.366,-3.126 1.992,-4.459 4.399,-4.237c2.903,0.268 3.81,2.76 3.476,6.37c-0.095,1.032 0.224,1.331 0.53,1.359c0.344,0.032 0.577,-0.197 0.683,-1.343c0.21,-2.274 1.385,-4.361 3.734,-4.144c1.662,0.153 2.802,1.587 2.625,3.498c-0.354,3.839 -3.96,7.417 -6.558,9.894c-0.508,0.492 -1.491,1.538 -2.064,1.485c-0.286,-0.026 -0.701,-0.334 -1.082,-0.793c-2.459,-3.001 -5.81,-7.395 -5.801,-11.247l3.868,1.918c0.221,0.116 0.551,0.089 0.581,-0.236Z" style="fill:#f59995;fill-rule:nonzero;"/><path id="icon_glass" d="M239.466,73.78c0.538,4.028 2.515,11.645 3.014,15.379c0.259,1.945 3.168,2.157 5.566,1.837c2.574,-0.344 4.707,-1.449 4.489,-3.08c-0.441,-3.301 0.404,-11.955 -0.071,-15.512c-0.1,-0.747 -0.715,-1.305 -1.566,-1.691c0.705,-2.354 1.407,-4.588 2.045,-6.554c0.139,-0.458 -0.602,-0.759 -0.769,-0.217l-2.034,6.492c-1.333,-0.402 -2.945,-0.487 -4.104,-0.332c-2.437,0.326 -6.937,0.926 -6.57,3.678Zm6.138,14.962c1.224,-4.164 2.589,-8.927 3.943,-13.468c0.858,-0.315 1.683,-0.725 2.237,-1.219c0.187,4.095 -0.432,10.999 -0.035,13.966c0.149,1.12 -1.666,1.903 -3.808,2.189c-2.044,0.273 -4.494,0.2 -4.675,-1.156c-0.47,-3.518 -2.013,-9.532 -2.749,-13.695c1.553,0.993 4.451,0.826 5.984,0.622c0.55,-0.074 1.291,-0.213 2.064,-0.416c-1.35,4.421 -2.626,8.791 -3.73,12.959c-0.15,0.52 0.616,0.718 0.769,0.218Zm-5.349,-15.048c-0.265,-1.984 3.724,-2.517 5.886,-2.806c1.061,-0.141 2.588,-0.085 3.774,0.256l-1.087,3.546c-0.885,0.258 -1.804,0.421 -2.432,0.505c-1.848,0.246 -5.876,0.484 -6.141,-1.501Zm11.423,-1.185c0.115,0.865 -0.768,1.443 -1.871,1.87c0.287,-0.998 0.593,-1.999 0.885,-2.958c0.536,0.268 0.925,0.636 0.986,1.088Z" style="fill:#41bfb7;fill-rule:nonzero;"/></g><defs><linearGradient id="_Linear1" x1="0" y1="0" x2="1" y2="0" gradientUnits="userSpaceOnUse" gradientTransform="matrix(1.14117e-15,18.6367,-18.6367,1.14117e-15,140.104,133.838)"><stop offset="0" style="stop-color:#fff;stop-opacity:0.7"/><stop offset="1" style="stop-color:#fff;stop-opacity:0.14"/></linearGradient></defs></svg>