<?xml version="1.0" encoding="UTF-8" standalone="no"?>
<!-- Created with Keyshape -->
<svg xmlns="http://www.w3.org/2000/svg" xmlns:xlink="http://www.w3.org/1999/xlink" width="100%" height="100%" viewBox="0 0 282 240" clip-rule="evenodd" fill-rule="evenodd" stroke-linejoin="round" stroke-miterlimit="1.41421" style="white-space: preserve-spaces;">
    <defs>
        <linearGradient id="Gradient-0" x1="0" y1="0" x2="1" y2="0" gradientUnits="userSpaceOnUse" gradientTransform="matrix(0 18.6367 -18.6367 0 140.104 133.838)">
            <stop offset="0" stop-color="#ffffff" stop-opacity="0.7"/>
            <stop offset="1" stop-color="#ffffff" stop-opacity="0.14"/>
        </linearGradient>
    </defs>
    <style>
@keyframes sun_t { 0% { transform: translate(140.794413px,120.000151px) rotate(-24.022286deg) scale(0.797206,0.797206) translate(-140.794413px,-120.000151px); } 13.3333% { transform: translate(140.794413px,120.000151px) rotate(0deg) scale(1,1) translate(-140.794413px,-120.000151px); } 100% { transform: translate(140.794413px,120.000151px) rotate(0deg) scale(1,1) translate(-140.794413px,-120.000151px); } }
@keyframes sun_o { 0% { opacity: 0; } 13.3333% { opacity: 1; } 100% { opacity: 1; } }
@keyframes a0_t { 0% { transform: translate(-20px,0px); } 10% { transform: translate(-20px,0px); } 33.3333% { transform: translate(-20px,0px); animation-timing-function: cubic-bezier(0.006358,0.309524,0.368851,0.650947); } 50% { transform: translate(0px,0px); } 100% { transform: translate(0px,0px); } }
@keyframes a0_o { 0% { opacity: 0; } 10% { opacity: 0; } 33.3333% { opacity: 0; } 50% { opacity: 1; } 100% { opacity: 1; } }
@keyframes a1_t { 0% { transform: translate(-10px,0px); } 10% { transform: translate(-10px,0px); } 26.6666% { transform: translate(-10px,0px); animation-timing-function: cubic-bezier(0.022735,0.416575,0.3997,0.74616); } 43.3333% { transform: translate(0px,0px); } 100% { transform: translate(0px,0px); } }
@keyframes a1_o { 0% { opacity: 0; } 10% { opacity: 0; } 26.6667% { opacity: 0; } 43.3333% { opacity: 1; } 100% { opacity: 1; } }
@keyframes a2_t { 0% { transform: translate(0px,-10px); } 10% { transform: translate(0px,-10px); } 50% { transform: translate(0px,-10px); animation-timing-function: cubic-bezier(0.552434,0,0.670189,0.059876); } 66.6666% { transform: translate(0px,0px); } 100% { transform: translate(0px,0px); } }
@keyframes a2_o { 0% { opacity: 0; } 10% { opacity: 0; } 50% { opacity: 0; animation-timing-function: cubic-bezier(0.885207,0.00454,1,0.12778); } 66.6667% { opacity: 1; } 100% { opacity: 1; } }
@keyframes a3_t { 0% { transform: translate(13.00043px,0px); } 10% { transform: translate(13.00043px,0px); } 40% { transform: translate(13.00043px,0px); animation-timing-function: cubic-bezier(0.007751,0.389581,0.497243,0.701941); } 56.6666% { transform: translate(0px,0px); } 100% { transform: translate(0px,0px); } }
@keyframes a3_o { 0% { opacity: 0; } 10% { opacity: 0; } 40% { opacity: 0; } 56.6667% { opacity: 1; } 100% { opacity: 1; } }
@keyframes title_date_t { 0% { transform: translate(0px,19.088309px); } 16.6666% { transform: translate(0px,19.088309px); animation-timing-function: cubic-bezier(0,0.562732,0.268539,0.874851); } 33.3333% { transform: translate(0px,0px); } 100% { transform: translate(0px,0px); } }
@keyframes title_date_o { 0% { opacity: 0; } 16.6667% { opacity: 0; } 33.3333% { opacity: 1; } 100% { opacity: 1; } }
@keyframes icon_sun_t { 0% { transform: translate(173.443099px,159.801404px) rotate(-205.840727deg) translate(-173.443099px,-159.801404px); } 10% { transform: translate(173.443099px,159.801404px) rotate(-205.840727deg) translate(-173.443099px,-159.801404px); } 100% { transform: translate(173.443099px,159.801404px) rotate(0deg) translate(-173.443099px,-159.801404px); } }
@keyframes title_wordcamp_t { 0% { transform: translate(34.077px,0px); } 10% { transform: translate(34.077px,0px); animation-timing-function: cubic-bezier(0,0.174999,0,1); } 26.6666% { transform: translate(0px,0px); } 100% { transform: translate(0px,0px); } }
@keyframes title_wordcamp_o { 0% { opacity: 0; } 10% { opacity: 0; } 26.6667% { opacity: 1; } 100% { opacity: 1; } }
@keyframes title_the_t { 0% { transform: translate(0px,-14.015px); } 43.3333% { transform: translate(0px,-14.015px); animation-timing-function: cubic-bezier(0.394916,0,0.756757,0.177018); } 66.6666% { transform: translate(0px,0px); } 100% { transform: translate(0px,0px); } }
@keyframes title_the_o { 0% { opacity: 0; } 43.3333% { opacity: 0; animation-timing-function: cubic-bezier(0.686019,0.305946,1,0.64546); } 66.6667% { opacity: 1; } 100% { opacity: 1; } }
@keyframes a4_t { 0% { transform: translate(34.862597px,37.935354px); } 66.6666% { transform: translate(34.862597px,37.935354px); animation-timing-function: cubic-bezier(0.310183,0.198159,0.668193,0.470634); } 83.3333% { transform: translate(44.516596px,63.651248px); } 100% { transform: translate(44.516596px,63.651248px); } }
@keyframes icon_palmtree_t { 0% { transform: rotate(-7.52321deg) translate(-44.516596px,-63.651248px); } 66.6666% { transform: rotate(-7.52321deg) translate(-44.516596px,-63.651248px); animation-timing-function: cubic-bezier(0.405436,1.302292,0.836629,1.349358); } 83.3333% { transform: rotate(0deg) translate(-44.516596px,-63.651248px); } 100% { transform: rotate(0deg) translate(-44.516596px,-63.651248px); } }
@keyframes icon_palmtree_o { 0% { opacity: 0; } 10% { opacity: 0; } 66.6667% { opacity: 0; } 73.3333% { opacity: 1; } 100% { opacity: 1; } }
@keyframes a5_t { 0% { transform: translate(244.499991px,218.071994px); } 76.6666% { transform: translate(244.499991px,218.071994px); animation-timing-function: cubic-bezier(0.346376,0.454885,0.685434,0.548561); } 100% { transform: translate(263.996358px,170.260144px); } }
@keyframes icon_bikini_t { 0% { transform: rotate(195.390528deg) translate(-263.996358px,-170.260144px); } 76.6666% { transform: rotate(195.390528deg) translate(-263.996358px,-170.260144px); animation-timing-function: cubic-bezier(0.205639,0.39271,0.655797,0.691302); } 100% { transform: rotate(0deg) translate(-263.996358px,-170.260144px); } }
@keyframes icon_bikini_o { 0% { opacity: 0; } 10% { opacity: 0; } 76.6667% { opacity: 0; } 86.6667% { opacity: 1; } 100% { opacity: 1; } }
@keyframes a6_t { 0% { transform: translate(43.39px,211.519px); } 63.3333% { transform: translate(43.39px,211.519px); animation-timing-function: cubic-bezier(0.289464,0.240468,0.504769,0.791936); } 86.6666% { transform: translate(15.096408px,159.107934px); } 100% { transform: translate(15.096408px,159.107934px); } }
@keyframes icon_heart_t { 0% { transform: rotate(191.759843deg) translate(-15.096408px,-159.107934px); } 63.3333% { transform: rotate(191.759843deg) translate(-15.096408px,-159.107934px); animation-timing-function: cubic-bezier(0.459008,0.363507,0.789311,0.691791); } 86.6666% { transform: rotate(0deg) translate(-15.096408px,-159.107934px); } 100% { transform: rotate(0deg) translate(-15.096408px,-159.107934px); } }
@keyframes icon_heart_o { 0% { opacity: 0; } 63.3333% { opacity: 0; } 73.3333% { opacity: 1; } 100% { opacity: 1; } }
@keyframes a7_t { 0% { transform: translate(263.996358px,23.338px); } 76.6666% { transform: translate(263.996358px,23.338px); animation-timing-function: cubic-bezier(0.253933,0,0.593015,0); } 100% { transform: translate(246.093703px,75.993px); } }
@keyframes icon_glass_t { 0% { transform: rotate(163.124898deg) translate(-246.202561px,-77.384776px); } 76.6666% { transform: rotate(163.124898deg) translate(-246.202561px,-77.384776px); animation-timing-function: cubic-bezier(0.549319,0.216029,0.892856,0.554191); } 100% { transform: rotate(0deg) translate(-246.202561px,-77.384776px); } }
@keyframes icon_glass_o { 0% { opacity: 0; } 76.6667% { opacity: 0; } 86.6667% { opacity: 1; } 100% { opacity: 1; } }
    </style>
    <g id="logo">
        <path id="sun" d="M139.786,0.983C139.8,0.436,140.247,0,140.794,0C141.342,0,141.789,0.436,141.803,0.983C142.555,29.783,143.518,66.703,143.924,82.257C143.937,82.762,144.322,83.179,144.824,83.234C145.325,83.289,145.791,82.964,145.912,82.474C148.978,70.144,155.383,44.383,160.431,24.082C160.562,23.554,161.088,23.225,161.62,23.338C162.152,23.451,162.499,23.965,162.404,24.501C158.758,45.1,154.131,71.239,151.917,83.751C151.829,84.248,152.122,84.734,152.602,84.888C153.083,85.042,153.604,84.817,153.821,84.361C160.518,70.317,176.415,36.98,188.816,10.976C189.052,10.482,189.638,10.266,190.137,10.488C190.637,10.711,190.869,11.291,190.659,11.796C179.632,38.412,165.495,72.533,159.54,86.907C159.346,87.373,159.528,87.911,159.964,88.165C160.4,88.419,160.957,88.312,161.268,87.914C169.084,77.896,185.413,56.968,198.281,40.475C198.616,40.046,199.23,39.959,199.67,40.279C200.11,40.599,200.218,41.21,199.913,41.66C188.204,58.996,173.346,80.993,166.234,91.522C165.951,91.94,166.021,92.503,166.398,92.84C166.774,93.176,167.341,93.182,167.725,92.854C179.556,82.748,207.638,58.76,229.543,40.047C229.959,39.692,230.583,39.733,230.949,40.139C231.315,40.546,231.29,41.17,230.893,41.547C209.993,61.376,183.201,86.797,171.914,97.506C171.548,97.853,171.494,98.418,171.79,98.828C172.085,99.238,172.637,99.366,173.083,99.129C184.298,93.156,207.727,80.679,226.192,70.846C226.672,70.59,227.268,70.761,227.54,71.232C227.812,71.703,227.662,72.305,227.2,72.593C209.452,83.667,186.932,97.718,176.152,104.445C175.724,104.712,175.559,105.255,175.766,105.715C175.973,106.176,176.489,106.412,176.973,106.268C191.891,101.848,227.302,91.355,254.925,83.17C255.449,83.015,256.002,83.306,256.171,83.826C256.34,84.346,256.064,84.907,255.548,85.089C228.39,94.704,193.574,107.029,178.907,112.222C178.431,112.39,178.153,112.884,178.256,113.379C178.359,113.873,178.811,114.215,179.315,114.18C191.99,113.285,218.469,111.416,239.336,109.943C239.879,109.905,240.354,110.303,240.411,110.844C240.468,111.385,240.086,111.874,239.547,111.949C218.829,114.847,192.54,118.524,179.957,120.284C179.457,120.354,179.085,120.783,179.087,121.288C179.089,121.793,179.464,122.218,179.965,122.284C195.391,124.314,232.008,129.131,260.572,132.889C261.115,132.961,261.501,133.451,261.444,133.995C261.387,134.539,260.907,134.939,260.361,134.896C231.64,132.633,194.822,129.732,179.311,128.51C178.807,128.47,178.352,128.808,178.245,129.302C178.138,129.795,178.412,130.292,178.887,130.464C190.829,134.802,215.779,143.865,235.442,151.007C235.953,151.192,236.225,151.75,236.057,152.267C235.889,152.784,235.341,153.075,234.819,152.925C214.713,147.146,189.202,139.812,176.99,136.302C176.505,136.163,175.991,136.403,175.787,136.865C175.584,137.327,175.753,137.869,176.184,138.132C189.451,146.261,220.943,165.555,245.509,180.606C245.976,180.892,246.129,181.498,245.856,181.972C245.582,182.445,244.981,182.615,244.5,182.354C219.183,168.605,186.727,150.979,173.054,143.553C172.61,143.312,172.057,143.436,171.758,143.844C171.46,144.251,171.508,144.816,171.872,145.167C181.018,153.987,200.125,172.414,215.182,186.936C215.574,187.314,215.596,187.934,215.232,188.338C214.868,188.742,214.249,188.785,213.833,188.435C197.816,174.978,177.493,157.902,167.765,149.728C167.378,149.403,166.811,149.414,166.437,149.754C166.063,150.093,165.998,150.657,166.284,151.073C175.098,163.894,196.019,194.33,212.34,218.072C212.65,218.523,212.544,219.138,212.101,219.46C211.659,219.781,211.04,219.692,210.707,219.258C193.171,196.4,170.69,167.097,161.22,154.752C160.912,154.351,160.356,154.239,159.918,154.49C159.48,154.741,159.294,155.277,159.484,155.745C164.251,167.523,174.211,192.128,182.06,211.519C182.264,212.023,182.032,212.599,181.535,212.82C181.038,213.041,180.456,212.829,180.218,212.34C171.059,193.531,159.438,169.665,153.876,158.241C153.655,157.788,153.132,157.567,152.653,157.725C152.173,157.883,151.884,158.371,151.976,158.867C154.813,174.166,161.547,210.48,166.8,238.807C166.899,239.345,166.552,239.864,166.017,239.978C165.482,240.092,164.954,239.758,164.826,239.226C158.103,211.212,149.484,175.298,145.854,160.169C145.736,159.678,145.273,159.349,144.771,159.4C144.268,159.451,143.881,159.865,143.864,160.37C143.428,173.068,142.519,199.598,141.803,220.505C141.784,221.049,141.338,221.48,140.794,221.48C140.251,221.48,139.805,221.049,139.786,220.505C139.07,199.598,138.16,173.068,137.725,160.37C137.708,159.865,137.321,159.451,136.818,159.4C136.316,159.349,135.853,159.678,135.735,160.169C132.105,175.298,123.486,211.212,116.763,239.226C116.635,239.758,116.107,240.092,115.572,239.978C115.037,239.864,114.69,239.345,114.789,238.807C120.042,210.48,126.776,174.166,129.613,158.867C129.705,158.371,129.416,157.883,128.936,157.725C128.457,157.567,127.934,157.788,127.713,158.241C122.15,169.665,110.53,193.531,101.371,212.34C101.133,212.829,100.55,213.041,100.054,212.82C99.557,212.599,99.325,212.023,99.529,211.519C107.378,192.128,117.338,167.523,122.105,155.745C122.295,155.277,122.109,154.741,121.671,154.49C121.233,154.239,120.677,154.351,120.369,154.752C110.899,167.097,88.418,196.4,70.882,219.258C70.549,219.692,69.93,219.781,69.488,219.46C69.045,219.138,68.939,218.523,69.249,218.072C85.57,194.33,106.491,163.894,115.305,151.073C115.591,150.657,115.526,150.093,115.152,149.754C114.778,149.414,114.211,149.403,113.824,149.728C104.096,157.902,83.773,174.978,67.756,188.435C67.34,188.785,66.721,188.742,66.357,188.338C65.993,187.934,66.015,187.314,66.407,186.936C81.464,172.414,100.571,153.987,109.717,145.167C110.081,144.816,110.129,144.251,109.831,143.844C109.532,143.436,108.979,143.312,108.535,143.553C94.862,150.979,62.406,168.605,37.089,182.354C36.608,182.615,36.007,182.445,35.733,181.972C35.46,181.498,35.613,180.892,36.08,180.606C60.646,165.555,92.138,146.261,105.405,138.132C105.836,137.869,106.005,137.327,105.802,136.865C105.598,136.403,105.084,136.163,104.599,136.302C92.387,139.812,66.876,147.146,46.77,152.925C46.248,153.075,45.7,152.784,45.532,152.267C45.364,151.75,45.636,151.192,46.147,151.007C65.81,143.865,90.759,134.802,102.702,130.464C103.177,130.292,103.451,129.795,103.344,129.302C103.237,128.808,102.782,128.47,102.278,128.51C86.767,129.732,49.949,132.633,21.228,134.896C20.682,134.939,20.202,134.539,20.145,133.995C20.087,133.451,20.474,132.961,21.017,132.889C49.581,129.131,86.198,124.314,101.624,122.284C102.125,122.218,102.5,121.793,102.502,121.288C102.504,120.783,102.132,120.354,101.632,120.284C89.049,118.524,62.76,114.847,42.042,111.949C41.503,111.874,41.121,111.385,41.178,110.844C41.235,110.303,41.71,109.905,42.253,109.943C63.12,111.416,89.599,113.285,102.274,114.18C102.778,114.215,103.23,113.873,103.333,113.379C103.436,112.884,103.158,112.39,102.682,112.222C88.015,107.029,53.199,94.704,26.041,85.089C25.525,84.907,25.249,84.346,25.418,83.826C25.587,83.306,26.14,83.015,26.664,83.17C54.287,91.355,89.698,101.848,104.616,106.268C105.1,106.412,105.616,106.176,105.823,105.715C106.03,105.255,105.865,104.712,105.437,104.445C94.657,97.718,72.137,83.667,54.389,72.593C53.927,72.305,53.777,71.703,54.049,71.232C54.321,70.761,54.917,70.59,55.397,70.846C73.862,80.679,97.291,93.156,108.506,99.129C108.952,99.366,109.504,99.238,109.799,98.828C110.095,98.418,110.041,97.853,109.675,97.506C98.388,86.797,71.596,61.376,50.696,41.547C50.299,41.17,50.274,40.546,50.64,40.139C51.006,39.733,51.63,39.692,52.046,40.047C73.951,58.76,102.033,82.748,113.864,92.854C114.248,93.182,114.815,93.176,115.191,92.84C115.568,92.503,115.638,91.94,115.355,91.522C108.243,80.993,93.385,58.996,81.676,41.66C81.371,41.21,81.479,40.599,81.919,40.279C82.359,39.959,82.973,40.046,83.308,40.475C96.176,56.968,112.505,77.896,120.321,87.914C120.632,88.312,121.189,88.419,121.625,88.165C122.061,87.911,122.243,87.373,122.049,86.907C116.094,72.533,101.957,38.412,90.93,11.796C90.72,11.291,90.952,10.711,91.451,10.488C91.951,10.266,92.537,10.482,92.773,10.976C105.174,36.98,121.071,70.317,127.768,84.361C127.985,84.817,128.506,85.042,128.987,84.888C129.467,84.734,129.76,84.248,129.672,83.751C127.458,71.239,122.831,45.1,119.185,24.501C119.09,23.965,119.437,23.451,119.969,23.338C120.501,23.225,121.027,23.554,121.158,24.082C126.206,44.383,132.611,70.144,135.677,82.474C135.798,82.964,136.264,83.289,136.765,83.234C137.267,83.179,137.652,82.762,137.665,82.257C138.071,66.703,139.034,29.783,139.786,0.983Z" fill="url(#Gradient-0)" opacity="0" transform="translate(140.794,120) rotate(-24.0223) scale(0.797206,0.797206) translate(-140.794,-120)" style="animation: sun_t 3s linear both, sun_o 3s linear both;"/>
        <g id="title_nice">
            <path d="M90.56,105.511C90.408,106.272,90.712,106.627,91.473,106.627L96.595,106.627C97.407,106.627,97.813,106.272,97.914,105.511L103.24,79.442L115.513,105.815C115.818,106.272,116.02,106.627,116.375,106.627L121.802,106.627C122.614,106.627,123.121,106.272,123.273,105.511L130.779,70.11C130.931,69.451,130.272,68.994,129.765,68.994L124.642,68.994C124.287,68.994,123.73,69.147,123.374,69.755L118.404,94.303L106.739,69.755C106.536,69.248,105.928,68.994,105.42,68.994L99.436,68.994C98.726,68.994,98.218,69.502,98.117,70.11L90.56,105.511Z" fill="#1f7dc1" fill-rule="nonzero" opacity="0" transform="translate(-20,0)" style="animation: a0_t 3s linear both, a0_o 3s linear both;"/>
            <path d="M139.351,82.942C139.503,82.232,138.945,81.725,138.336,81.725L134.076,81.725C133.315,81.725,132.808,82.232,132.656,82.942L127.838,105.46C127.686,106.221,128.041,106.627,128.801,106.627L133.062,106.627C133.873,106.627,134.38,106.221,134.532,105.46L139.351,82.942ZM133.873,74.32C133.417,76.45,134.786,78.174,136.916,78.174C139.148,78.174,141.176,76.45,141.633,74.32C142.089,72.139,140.771,70.414,138.539,70.414C136.409,70.414,134.33,72.139,133.873,74.32Z" fill="#1f7dc1" fill-rule="nonzero" opacity="0" transform="translate(-10,0)" style="animation: a1_t 3s linear both, a1_o 3s linear both;"/>
            <path d="M152.537,94.849C148.886,94.849,146.654,92.212,147.516,88.357C148.277,84.655,151.827,81.51,155.58,81.51C157.203,81.51,158.877,82.22,159.891,83.133C160.145,83.336,160.399,83.488,160.601,83.488C160.956,83.488,161.261,83.285,161.514,82.981L164.202,79.583C164.304,79.482,164.456,79.177,164.507,79.025C164.608,78.467,164.354,78.112,163.847,77.757C161.869,76.236,159.536,75.272,156.848,75.272C149.697,75.272,142.647,81.105,141.075,88.306C139.553,95.508,144.22,101.24,151.32,101.24C154.262,101.24,157.153,100.124,159.688,98.653C160.094,98.399,160.652,98.095,160.804,97.486C160.804,97.385,160.754,97.131,160.703,96.929L159.486,94.24C159.283,93.733,159.08,93.226,158.623,93.226C158.421,93.226,158.065,93.328,157.812,93.48C155.986,94.24,154.566,94.798,152.537,94.849Z" fill="#1f7dc1" fill-rule="nonzero" opacity="0" transform="translate(0,-10)" style="animation: a2_t 3s linear both, a2_o 3s linear both;"/>
            <path d="M176.216,99.555C173.728,100.044,170.908,98.582,170.639,95.637L184.126,92.988C186.216,92.577,187.87,91.787,187.859,89.36C187.871,82.845,183.064,77.845,175.748,79.282C169.627,80.485,163.873,87.766,163.729,94.927C163.624,102.287,169.317,107.061,176.235,105.702C179.072,105.145,181.802,103.782,183.918,101.66C184.307,101.274,184.726,100.778,184.728,100.261C184.699,100.111,184.65,99.862,184.501,99.633L182.551,96.812C182.284,96.502,182.065,96.442,181.767,96.501C181.418,96.569,180.959,97.124,180.411,97.491C179.114,98.521,177.619,99.331,176.216,99.555ZM170.744,91.171C171.092,88.467,173.677,85.84,176.115,85.361C179.101,84.774,181.394,86.185,181.444,89.069L170.744,91.171Z" fill="#1f7dc1" fill-rule="nonzero" opacity="0" transform="translate(13.0004,0)" style="animation: a3_t 3s linear both, a3_o 3s linear both;"/>
        </g>
        <g id="title_date" opacity="0" transform="translate(0,19.0883)" style="animation: title_date_t 3s linear both, title_date_o 3s linear both;">
            <g id="date">
                <path d="M77.654,155.103C77.654,159.567,77.91,167.108,77.91,167.416C77.91,168.134,78.321,168.596,79.039,168.596C79.552,168.596,79.962,168.134,79.962,167.416C79.962,166.595,79.757,159.823,79.655,155.052C79.655,153.923,79.706,152.897,79.706,152.128C79.706,151.461,79.449,150.948,78.68,150.948C78.064,150.948,77.91,151.255,76.576,151.82C74.37,152.743,74.37,152.795,72.934,153.308C72.369,153.513,72.062,153.872,72.062,154.385C72.062,155.155,72.626,155.411,73.036,155.411C73.293,155.411,73.549,155.36,73.857,155.206L77.397,153.564C77.654,153.462,77.654,153.615,77.654,154.077L77.654,155.103Z" fill="#fdba2d" fill-rule="nonzero"/>
                <path d="M87.094,168.596C87.555,168.596,87.863,168.494,88.222,168.288C90.377,167.006,95.815,163.774,95.815,157.309C95.815,152.846,92.481,150.948,89.761,150.948C85.76,150.948,83.502,153.359,83.502,156.796C83.502,159.413,85.298,162.183,89.248,162.183C90.89,162.183,92.019,161.773,92.942,161.157C91.403,164.492,88.171,166.236,86.786,167.006C86.478,167.16,86.273,167.416,86.273,167.827C86.273,168.288,86.632,168.596,87.094,168.596ZM89.248,160.131C86.683,160.131,85.554,158.438,85.554,156.796C85.554,154.282,87.042,153,89.761,153C91.608,153,93.763,154.282,93.763,157.309C93.763,158.233,92.481,160.131,89.248,160.131Z" fill="#fdba2d" fill-rule="nonzero"/>
                <path d="M104.332,165.928C104.332,164.492,103.049,163.209,101.664,163.209C100.176,163.209,98.945,164.338,98.945,165.928C98.945,167.468,100.381,168.596,101.664,168.596C102.947,168.596,104.332,167.468,104.332,165.928Z" fill="#fdba2d" fill-rule="nonzero"/>
                <path d="M111.053,155.103C111.053,159.567,111.309,167.108,111.309,167.416C111.309,168.134,111.719,168.596,112.438,168.596C112.951,168.596,113.361,168.134,113.361,167.416C113.361,166.595,113.156,159.823,113.053,155.052C113.053,153.923,113.105,152.897,113.105,152.128C113.105,151.461,112.848,150.948,112.079,150.948C111.463,150.948,111.309,151.255,109.975,151.82C107.769,152.743,107.769,152.795,106.333,153.308C105.768,153.513,105.46,153.872,105.46,154.385C105.46,155.155,106.025,155.411,106.435,155.411C106.692,155.411,106.948,155.36,107.256,155.206L110.796,153.564C111.053,153.462,111.053,153.615,111.053,154.077L111.053,155.103Z" fill="#fdba2d" fill-rule="nonzero"/>
                <path d="M126.392,150.896C121.467,150.896,117.26,155.155,117.26,159.772C117.26,165.877,122.647,168.596,126.341,168.596C130.086,168.596,135.524,165.569,135.524,159.772C135.524,155.155,131.318,150.896,126.392,150.896ZM126.392,152.949C129.881,152.949,133.421,156.181,133.421,159.772C133.421,164.441,129.214,166.544,126.444,166.544C123.622,166.544,119.364,164.594,119.364,159.772C119.364,156.283,122.852,152.949,126.392,152.949Z" fill="#fdba2d" fill-rule="nonzero"/>
                <path d="M144.041,165.928C144.041,164.492,142.758,163.209,141.373,163.209C139.885,163.209,138.654,164.338,138.654,165.928C138.654,167.468,140.091,168.596,141.373,168.596C142.656,168.596,144.041,167.468,144.041,165.928Z" fill="#fdba2d" fill-rule="nonzero"/>
                <path d="M151.531,166.339C151.223,166.339,151.172,166.339,151.172,166.236C151.172,166.134,151.531,165.98,151.942,165.672C153.122,164.748,158.406,161.106,158.406,156.437C158.406,153.205,156.303,150.948,151.942,150.948C150.197,150.948,149.017,151.461,148.094,151.922C147.684,152.128,147.273,152.435,147.273,153C147.273,153.667,147.735,153.923,148.094,153.923C148.402,153.923,148.453,153.872,148.812,153.718C149.582,153.41,150.403,153,151.942,153C154.969,153,156.303,154.128,156.303,156.437C156.303,161.465,149.017,165.415,147.991,166.39C147.581,166.749,147.324,166.954,147.324,167.365C147.324,168.032,147.684,168.391,148.864,168.391C148.864,168.391,153.019,168.34,153.789,168.34C155.174,168.34,157.893,168.391,157.893,168.391C158.663,168.391,158.919,167.827,158.919,167.416C158.919,166.698,158.509,166.339,157.893,166.339C157.893,166.339,155.636,166.288,154.045,166.288C152.557,166.288,151.839,166.339,151.531,166.339Z" fill="#fdba2d" fill-rule="nonzero"/>
                <path d="M191.035,155.103C191.035,159.567,191.292,167.108,191.292,167.416C191.292,168.134,191.702,168.596,192.421,168.596C192.934,168.596,193.344,168.134,193.344,167.416C193.344,166.595,193.139,159.823,193.036,155.052C193.036,153.923,193.088,152.897,193.088,152.128C193.088,151.461,192.831,150.948,192.061,150.948C191.446,150.948,191.292,151.255,189.958,151.82C187.752,152.743,187.752,152.795,186.315,153.308C185.751,153.513,185.443,153.872,185.443,154.385C185.443,155.155,186.008,155.411,186.418,155.411C186.675,155.411,186.931,155.36,187.239,155.206L190.779,153.564C191.035,153.462,191.035,153.615,191.035,154.077L191.035,155.103Z" fill="#fdba2d" fill-rule="nonzero"/>
                <path d="M197.294,163.62C197.294,167.211,200.116,168.596,203.4,168.596C206.683,168.596,209.659,167.057,209.659,163.62C209.659,161.106,208.068,159.875,206.427,159.31C207.709,158.695,208.838,157.566,208.838,155.719C208.838,152.333,206.17,150.948,203.4,150.948C200.629,150.948,198.115,152.333,198.115,155.719C198.115,157.515,199.193,158.643,200.424,159.259C198.782,159.823,197.294,161.003,197.294,163.62ZM203.451,160.49C204.939,160.49,207.555,160.849,207.555,163.62C207.555,165.672,205.503,166.544,203.4,166.544C201.296,166.544,199.398,165.672,199.398,163.62C199.398,160.747,201.912,160.49,203.451,160.49ZM203.451,158.438C202.22,158.438,200.167,157.771,200.167,155.668C200.167,153.821,201.758,152.949,203.4,152.949C205.093,152.949,206.786,153.821,206.786,155.668C206.786,157.771,204.631,158.438,203.451,158.438Z" fill="#fdba2d" fill-rule="nonzero"/>
            </g>
            <path id="icon_wp" d="M165.287,162.254C166.474,166.513,170.42,169.573,174.845,168.34C179.675,166.994,182.354,163.021,181.093,158.496C179.814,153.904,176.235,150.205,171.911,151.409C166.304,152.972,163.832,157.031,165.287,162.254ZM175.793,167.187C175.532,166.83,175.321,166.214,175.069,165.496L172.718,158.952C172.636,161.496,172.552,165.419,172.514,166.171C172.479,166.895,172.43,167.376,172.295,167.695C173.136,167.806,174.004,167.75,174.868,167.509C175.185,167.421,175.494,167.313,175.793,167.187ZM178.257,154.706C178.043,156.941,177.373,163.964,177.302,164.906C177.239,165.395,177.201,165.991,177.097,166.49C179.604,164.833,181.104,161.8,180.221,158.631C179.741,157.038,179.076,155.719,178.257,154.706ZM176.143,152.941C174.806,152.252,173.251,152.112,171.548,152.586C168.254,153.504,166.336,155.472,165.793,157.865C165.851,157.84,165.918,157.817,165.996,157.796C165.996,157.796,166.766,157.614,167.973,157.295C168.375,157.188,168.538,157.315,168.579,157.474C168.653,157.751,168.534,157.952,167.91,158.117C167.91,158.117,167.643,158.166,167.402,158.23C168.395,160.363,170.967,166.262,171.307,166.978C171.507,167.413,171.544,167.551,171.584,167.541C171.665,167.52,171.638,167.336,171.669,166.882C171.736,165.995,171.839,159.778,171.99,157.66C172.021,157.207,172.18,156.91,172.421,156.847C172.662,156.783,172.844,156.82,173.03,157.279C173.819,159.127,175.699,164.948,176.034,165.729C176.204,166.129,176.231,166.313,176.312,166.291C176.352,166.281,176.356,166.131,176.396,165.633C176.479,164.805,177.025,158.824,177.282,156.346C177.44,154.82,175.653,154.865,176.051,153.171C176.072,153.081,176.103,153.005,176.143,152.941ZM165.662,158.689C165.58,159.568,165.669,160.49,165.931,161.43C166.711,164.229,168.415,166.24,170.472,167.171C170.409,167.039,170.346,166.901,170.281,166.762C169.89,165.932,167.402,160.35,166.582,158.468L165.662,158.689Z" fill="#fdba2d" stroke="#fdba2d" stroke-width="0.4px"/>
            <g id="icon_sun" transform="translate(173.443,159.801) rotate(-205.841) translate(-173.443,-159.801)" style="animation: icon_sun_t 3s linear both;">
                <path d="M173.212,170.394C173.691,170.488,173.926,171.135,174.01,171.62C174.311,173.365,173.946,175.887,172.923,175.783C172.419,175.731,172.29,174.923,172.248,174.452C172.148,173.336,172.203,172.238,172.338,171.091C172.4,170.641,172.809,170.329,173.212,170.394Z" fill="#fdba2d"/>
                <path d="M165.431,170.001C166.245,169.894,166.736,170.824,165.586,172.187C165.323,172.498,165.047,172.799,164.801,173.118C164.801,173.118,164.677,173.281,164.528,173.359C163.955,173.661,163.055,173.086,163.317,172.371C163.644,171.478,164.388,170.647,165.13,170.13C165.221,170.067,165.322,170.017,165.431,170.001Z" fill="#fdba2d"/>
                <path d="M179.302,167.969C180.384,168.003,181.294,169.499,181.666,170.68C181.889,171.392,181.074,172.35,180.05,171.23C179.474,170.598,178.94,169.903,178.575,169.13C178.35,168.654,178.671,168.009,179.238,167.97C179.259,167.969,179.281,167.969,179.302,167.969Z" fill="#fdba2d"/>
                <path d="M174.219,151.017C175.763,151.035,177.287,151.598,178.463,152.641C180.923,154.822,181.782,158.445,181.54,161.434C181.333,164.002,179.841,166.4,177.48,167.694C173.931,169.639,169.138,169.4,166.407,166.012C163.045,161.841,163.824,154.72,168.813,152.167C170.434,151.338,172.283,151.03,174.092,151.017C174.134,151.017,174.176,151.017,174.219,151.017ZM173.434,152.878C173.211,152.88,172.988,152.887,172.765,152.9C170.401,153.045,167.985,154.086,166.836,156.21C165.915,157.912,165.874,159.995,166.361,161.908C167.133,164.943,169.804,167.497,173.2,167.261C176.643,167.023,179.845,164.221,179.859,160.6C179.798,157.938,179.099,155.134,176.728,153.706C175.749,153.117,174.589,152.877,173.434,152.878Z" fill="#fdba2d"/>
                <path d="M159.116,162.138C160.239,161.93,161.438,161.525,162.456,161.664C163.151,161.76,163.368,162.819,162.594,163.213C161.619,163.709,160.335,163.833,159.355,163.731C158.911,163.684,158.488,163.372,158.5,162.946C158.511,162.579,158.642,162.241,159.116,162.138Z" fill="#fdba2d"/>
                <path d="M185.252,159.394C186.629,159.406,188.477,159.556,188.383,160.636C188.303,161.558,186.695,161.289,185.481,161.228C185.116,161.21,184.75,161.198,184.385,161.191C184.177,161.187,183.969,161.184,183.76,161.183C183.598,161.182,183.368,161.181,183.368,161.181C182.67,161.132,182.201,160.075,183.126,159.678C183.775,159.4,184.53,159.392,185.252,159.394Z" fill="#fdba2d"/>
                <path d="M161.358,150.466C162.523,150.486,163.556,151.715,164.166,152.736C164.63,153.513,164.102,154.776,162.614,153.592C161.878,153.006,161.094,152.42,160.583,151.655C160.273,151.19,160.678,150.46,161.358,150.466Z" fill="#fdba2d"/>
                <path d="M184.156,149.658C184.628,149.643,185.115,150.021,185.051,150.508C184.937,151.37,183.769,151.883,182.736,152.469C182.015,152.878,180.882,153.336,180.764,152.219C180.694,151.558,181.551,151.03,182.29,150.513C182.87,150.108,183.431,149.697,184.156,149.658Z" fill="#fdba2d"/>
                <path d="M172.808,143.817C173.47,143.849,173.617,144.774,173.674,145.285C173.804,146.43,173.731,147.589,173.729,148.744C173.729,148.744,173.414,149.854,172.588,149.558C172.286,149.45,172.066,149.157,172.022,148.834C172.022,148.834,171.849,145.435,171.999,144.675C172.079,144.27,172.235,143.803,172.808,143.817Z" fill="#fdba2d"/>
            </g>
        </g>
        <g id="title_wordcamp" opacity="0" transform="translate(34.077,0)" style="animation: title_wordcamp_t 3s linear both, title_wordcamp_o 3s linear both;">
            <path d="M77.365,110.146C76.458,119.1,71.358,136.046,68.581,136.046C65.861,136.046,69.658,120.404,71.471,113.49C72.151,110.883,65.747,111.053,65.464,112.016C64.841,114.227,64.217,116.663,63.65,119.214C60.93,126.071,56.396,136.046,53.563,136.046C49.992,136.046,55.66,120.971,57.586,114.85C59.683,108.333,57.7,103.119,51.806,103.119C44.382,103.119,39.621,112.3,39.621,116.38C39.621,121.084,44.098,121.707,44.098,119.497C44.098,114.963,48.575,105.782,51.919,105.782C54.129,105.782,52.486,109.749,51.296,113.66C49.029,120.801,40.528,140.976,51.692,140.976C56.453,140.976,60.25,134.515,62.007,129.131C61.44,135.762,62.347,140.976,66.711,140.976C76.232,140.976,81.899,121.594,84.449,110.146C85.299,106.406,77.819,105.896,77.365,110.146Z" fill="#41bfb7" fill-rule="nonzero"/>
            <path d="M120.777,128.735C120.493,128.168,119.813,128.111,119.473,128.621C118.226,130.605,115.619,134.515,114.146,134.515C110.972,134.515,117.319,119.61,117.83,118.25C118.566,116.323,115.506,114.68,113.466,115.87C111.709,116.833,110.235,117.457,109.045,117.57C110.689,113.49,111.256,111.79,111.256,109.353C111.256,107.596,110.462,106.292,109.385,106.292C107.345,106.292,104.228,110.203,104.228,114.453C104.228,115.7,104.681,117.684,105.872,119.044L105.928,119.1C104.625,121.197,102.925,123.408,100.828,124.598C102.131,118.25,100.374,114.34,97.031,114.34C94.934,114.34,93.29,115.473,92.157,117.004C91.533,115.927,90.457,115.19,89.437,115.587C85.923,117.174,81.956,125.504,81.956,132.985C81.956,138.256,84.223,140.976,88.246,140.976C92.157,140.976,96.861,137.179,99.808,128.395C99.978,127.941,100.091,127.488,100.204,127.091L100.204,127.035C103.151,126.071,105.702,123.748,107.912,120.347C108.309,120.461,108.705,120.517,109.159,120.517C109.895,120.517,110.462,120.461,110.859,120.291C108.989,124.881,106.665,132.362,106.665,136.896C106.665,139.389,107.515,140.976,109.499,140.976C114.146,140.976,119.586,131.682,120.72,129.585C120.89,129.301,120.89,128.961,120.777,128.735ZM94.14,128.225C92.27,133.495,89.663,137.576,88.02,136.782C86.546,136.046,87.226,130.605,88.983,126.184C89.55,124.711,90.173,123.294,90.74,122.217C91.023,124.258,92.27,126.241,94.537,127.148C94.424,127.488,94.31,127.885,94.14,128.225ZM95.047,124.994C93.46,124.144,92.667,122.387,92.667,120.404C92.667,118.987,93.517,117.797,94.594,118.364C95.5,118.817,95.784,121.594,95.047,124.994Z" fill="#41bfb7" fill-rule="nonzero"/>
            <path d="M143.786,104.932C144.692,102.609,139.649,100.455,138.288,103.685C136.475,107.993,134.661,113.093,133.075,118.024C132.904,116.097,131.771,114.34,129.447,114.34C125.537,114.34,121.117,118.194,118.566,126.978C116.129,135.479,118.113,140.976,122.023,140.976C125.027,140.976,127.181,138.596,128.541,136.386C128.484,136.612,128.484,136.782,128.484,136.952C128.484,139.389,129.391,140.976,131.374,140.976C136.021,140.976,141.405,131.682,142.596,129.585C142.709,129.301,142.766,128.961,142.596,128.735C142.369,128.168,141.689,128.111,141.349,128.621C140.102,130.605,137.495,134.515,136.021,134.515C134.945,134.515,135.115,132.645,135.908,129.301C138.232,119.837,140.612,112.753,143.786,104.932ZM124.29,136.952C123.1,136.329,123.497,131.682,125.254,126.525C127.011,121.367,129.447,117.684,130.638,118.25C131.884,118.874,131.431,123.578,129.674,128.735C127.917,133.892,125.537,137.576,124.29,136.952Z" fill="#41bfb7" fill-rule="nonzero"/>
            <path d="M157.33,116.153C156.707,119.214,161.921,120.517,163.224,117.74C166.228,111.336,165.775,103.232,157.954,103.232C150.473,103.232,139.932,116.947,139.932,130.095C139.932,138.029,144.862,140.976,149.226,140.976C156.254,140.976,160.787,134.232,161.864,129.698C162.714,126.411,159.144,124.258,158.464,126.355C156.424,132.589,152.513,137.122,149.85,137.122C147.809,137.122,146.506,135.025,146.506,130.775C146.506,118.817,156.254,105.612,159.371,105.612C161.241,105.612,158.237,111.393,157.33,116.153Z" fill="#41bfb7" fill-rule="nonzero"/>
            <path d="M188.84,128.735C188.557,128.168,187.877,128.111,187.537,128.621C186.29,130.605,183.683,134.515,182.21,134.515C179.036,134.515,185.383,119.61,185.893,118.25C186.8,115.927,182.096,114,180.453,117.004C180.056,117.684,179.603,118.704,179.093,119.95C179.603,117.4,178.696,114.34,175.579,114.34C171.669,114.34,167.248,118.194,164.698,126.978C162.261,135.479,164.245,140.976,168.155,140.976C171.215,140.976,173.369,138.539,174.729,136.272C174.729,136.499,174.729,136.726,174.729,136.896C174.729,139.389,175.579,140.976,177.563,140.976C182.21,140.976,187.594,131.682,188.784,129.585C188.954,129.301,188.954,128.961,188.84,128.735ZM170.422,136.952C169.232,136.329,169.628,131.682,171.385,126.525C173.142,121.367,175.579,117.684,176.769,118.25C178.016,118.874,177.563,123.578,175.806,128.735C174.049,133.892,171.669,137.576,170.422,136.952Z" fill="#41bfb7" fill-rule="nonzero"/>
            <path d="M220.974,128.735C220.747,128.168,220.01,128.111,219.727,128.621C218.48,130.605,215.873,134.515,214.4,134.515C212.133,134.515,214.967,126.695,216.61,121.821C217.63,118.704,217.007,114.34,213.55,114.34C210.886,114.34,208.223,117.287,206.126,120.857C206.692,117.91,205.956,114.34,202.839,114.34C200.345,114.34,197.738,117.004,195.698,120.404C195.981,119.554,196.208,118.817,196.435,118.25C197.341,115.927,192.524,113.887,190.994,117.004C189.294,120.461,185.497,134.062,185.497,137.179C185.497,140.806,190.201,142.223,190.597,139.729C190.937,137.802,191.787,134.062,192.864,130.152C194.281,125.901,197.851,120.517,199.325,120.517C200.062,120.517,199.495,122.897,199.155,124.088C197.625,129.188,196.151,135.252,196.151,137.179C196.151,140.806,200.855,142.223,201.252,139.729C201.535,137.916,202.385,134.345,203.349,130.662C204.652,126.298,208.506,120.517,210.036,120.517C210.773,120.517,210.206,122.897,209.866,124.088C208.563,128.338,206.862,133.495,206.862,136.896C206.862,139.389,207.712,140.976,209.696,140.976C214.4,140.976,219.784,131.682,220.974,129.585C221.087,129.301,221.087,128.961,220.974,128.735Z" fill="#41bfb7" fill-rule="nonzero"/>
            <path d="M242.963,128.735C242.68,128.168,242.113,127.885,241.773,128.451C240.073,131.625,236.276,136.272,232.308,137.519C234.122,135.422,235.879,132.418,237.239,128.395C240.129,119.837,238.429,114.34,234.462,114.34C232.025,114.34,230.042,115.983,228.568,117.797C228.625,115.7,224.261,114.17,223.014,117.117C218.877,126.865,213.72,147.153,213.72,148.684C213.72,152.254,218.424,153.727,218.82,151.234C219.16,149.024,220.464,143.47,222.277,137.009C222.277,139.049,223.297,140.976,225.734,140.976C234.745,141.486,241.036,133.099,242.963,129.642C243.076,129.358,243.076,128.961,242.963,128.735ZM224.714,137.066C223.524,136.442,224.204,131.738,226.188,126.581C228.228,121.424,230.835,117.74,232.025,118.364C233.215,118.987,232.535,123.634,230.552,128.791C228.511,133.949,225.904,137.689,224.714,137.066Z" fill="#41bfb7" fill-rule="nonzero"/>
        </g>
        <g id="title_the" opacity="0" transform="translate(0,-14.015)" style="animation: title_the_t 3s linear both, title_the_o 3s linear both;">
            <g>
                <path d="M73.012,65.424C73.069,65.975,72.277,66.494,70.386,66.692C67.299,67.017,62.725,65.852,62.547,70.831C62.53,71.365,63.417,71.514,63.364,71.011C63.266,70.078,64.509,69.705,65.466,69.605C65.777,69.572,66.304,69.517,66.567,69.489C65.414,73.482,64.31,79.55,64.446,80.842C64.604,82.35,66.775,82.751,66.832,81.68C66.931,79.855,67.815,74.221,68.862,70.603C68.992,70.226,68.723,69.746,68.324,69.401C69.457,69.355,70.304,69.362,71.214,69.267C73.679,69.008,74.044,66.042,73.979,65.419C73.913,64.797,72.954,64.874,73.012,65.424Z" fill="#f59995" fill-rule="nonzero"/>
                <path d="M79.698,75.634C79.577,75.405,79.287,75.411,79.166,75.641C78.728,76.534,77.801,78.301,77.178,78.367C76.221,78.467,77.071,75.039,77.548,72.908C77.841,71.546,77.384,69.731,75.924,69.885C74.751,70.008,73.722,71.495,72.981,73.194C73.402,70.755,73.952,68.156,74.549,66.013C74.829,64.991,72.628,64.303,72.197,65.728C70.665,70.728,69.476,78.982,69.615,80.299C69.776,81.83,71.825,82.22,71.882,81.149C71.912,80.517,72.061,79.171,72.316,77.45L72.318,77.474C72.603,75.581,74.044,72.72,74.715,72.649C75.026,72.616,74.916,73.644,74.801,74.164C74.439,76.017,73.95,78.27,74.101,79.706C74.212,80.759,74.665,81.389,75.503,81.301C77.465,81.095,79.326,76.931,79.736,75.993C79.771,75.868,79.78,75.722,79.698,75.634Z" fill="#f59995" fill-rule="nonzero"/>
                <path d="M87.763,74.786C87.618,74.559,87.299,74.52,87.205,74.772C86.781,75.809,85.043,78.605,83.033,78.816C82.099,78.914,81.485,78.132,81.362,76.959C81.336,76.72,81.335,76.478,81.334,76.236C83.937,76.833,86.482,74.34,86.193,71.588C86.017,69.913,84.587,68.974,83.343,69.105C80.686,69.384,78.304,73.191,78.734,77.284C78.993,79.748,80.744,80.75,82.515,80.564C85.458,80.255,87.168,76.494,87.779,75.172C87.817,75.071,87.821,74.877,87.763,74.786ZM83.564,70.751C83.827,70.724,84.047,70.967,84.079,71.278C84.248,72.881,82.72,75.147,81.407,75.091C81.729,72.856,82.87,70.824,83.564,70.751Z" fill="#f59995" fill-rule="nonzero"/>
            </g>
            <path d="M89.4,80.828L89.429,81.17C89.082,81.586,88.861,81.614,88.626,81.742C85.743,83.333,83.433,85.84,80.237,86.699C79.309,86.948,78.348,87.043,77.388,87.071C77.102,87.079,75.865,87.037,75.221,86.965C74.711,86.909,74.204,86.83,73.698,86.739C71.06,86.267,68.427,85.43,65.593,85.943C63.986,86.234,62.464,86.902,61.063,87.758L60.726,87.811L60.448,87.609L60.396,87.275L60.593,87C63.717,85.062,67.234,84.148,71.448,84.646L71.516,84.654C73.445,84.917,75.419,85.263,77.267,85.351C78.89,85.428,80.955,85.188,82.802,84.176C84.836,83.062,86.73,81.698,88.8,80.639L89.141,80.611C89.227,80.683,89.314,80.756,89.4,80.828Z" fill="#f59995" fill-rule="nonzero"/>
            <path d="M90.51,56.672C90.51,56.672,90.522,57.015,90.522,57.015C90.134,57.434,89.897,57.446,89.639,57.571C86.63,59.041,84.179,61.654,81.173,62.514C78.802,63.192,76.084,62.844,74.025,62.413C70.624,61.693,67.093,61.121,63.627,62.779C63.124,63.019,62.638,63.291,62.163,63.581L61.826,63.634C61.826,63.634,61.548,63.433,61.548,63.433L61.497,63.099L61.693,62.823C64.829,60.878,68.402,59.983,72.368,60.448C75.034,60.76,77.693,61.582,80.673,61.066C83.14,60.639,85.133,58.924,87.477,57.659C88.277,57.227,89.092,56.825,89.921,56.452C89.921,56.452,90.262,56.442,90.262,56.442C90.345,56.519,90.428,56.595,90.51,56.672Z" fill="#f59995" fill-rule="nonzero"/>
        </g>
        <g id="icon_palmtree" style="animation: a4_t 3s linear both;">
            <path d="M41.151,48.394C39.084,49.361,37.391,51.21,36.059,53.121C35.666,53.685,35.317,54.38,35.317,54.38C34.995,54.78,34.391,54.6,34.392,53.798C34.396,51.807,34.581,49.813,35.123,47.905C35.123,47.905,34.547,48.394,34.178,48.734C32.357,50.41,30.272,52.035,29.295,54.289C29.204,54.499,29.245,54.498,29.179,54.611C28.961,54.981,28.243,54.867,28.24,54.33C28.24,54.237,28.36,50.891,29.388,48.476L29.92,47.307L30.68,45.988C30.719,45.918,30.758,45.849,30.798,45.779C31.841,43.98,33.026,42.189,34.54,40.865C31.565,41.314,28.447,42.159,26.077,43.822C25.701,44.085,25.303,44.576,25.303,44.576C24.958,44.909,24.273,44.703,24.466,43.99C25.119,41.588,27.218,39.576,29.192,38.044C31.692,36.105,34.785,34.82,38.049,35.037L38.073,35.039C36.594,33.832,34.929,32.857,33.179,32.101C33.179,32.101,32.922,31.954,32.882,31.724C32.836,31.454,33.016,31.19,33.335,31.135C37.795,30.736,42.564,30.954,45.954,34.066C46.143,34.239,46.109,34.52,46.545,34.157C50.802,30.683,58.072,31.261,61.908,35.462C62.335,35.93,62.285,36.623,61.19,36.371C58.2,35.702,54.996,35.811,52.194,36.99C52.194,36.99,53.471,37.118,54.47,37.299C58.764,38.078,62.608,40.789,64.479,44.925C64.755,45.536,64.585,46.445,63.733,45.784C62.773,45.066,61.507,44.775,60.271,44.43C57.685,43.711,54.964,43.06,52.379,43.44C52.001,43.496,51.469,43.206,51.978,44.03C53.952,47.234,55.034,50.492,54.761,54.288C54.73,54.728,54.089,55.147,53.731,54.381C53.464,53.808,52.927,52.975,52.244,52.016C50.802,49.99,49.088,47.988,47.019,46.962C47.019,46.962,47.096,47.11,47.174,47.266C48.075,49.077,48.318,51.156,48.36,53.185C48.387,54.493,47.697,54.047,47.457,53.779C45.956,51.794,44.395,49.756,42.387,48.39C42.312,48.339,42.221,48.283,42.137,48.234C42.173,48.443,42.13,48.7,42.107,48.93C41.537,54.53,41.869,60.215,42.439,65.849C43.465,75.969,47.511,89.705,48.753,94.722C48.921,95.401,48.969,96.104,48.344,96.292C48.048,96.382,47.345,96.278,47.045,95.19C44.032,84.226,40.708,68.412,40.845,54.118C40.864,52.204,40.922,50.272,41.151,48.394ZM31.832,40.421C32.144,40.338,32.457,40.259,32.772,40.185C33.027,40.126,33.283,40.07,33.539,40.018C34.767,39.772,36.542,39.359,36.528,40.48C36.528,40.48,36.38,40.838,35.999,41.05C33.975,42.195,32.64,44.54,31.558,46.485L30.806,47.79L30.312,48.882C29.865,49.932,29.642,51.065,29.473,52.198C29.473,52.198,30.491,51.007,31.329,50.127C32.638,48.751,33.933,47.184,35.538,46.362C35.976,46.137,36.822,46.265,36.47,47.098C36.4,47.265,36.421,47.217,36.392,47.292C35.787,48.854,35.565,50.546,35.455,52.228C35.455,52.228,36.47,50.923,37.353,50.047C38.624,48.786,40.354,47.215,41.73,47.083C42.432,47.016,42.754,47.378,43.39,47.875C44.799,48.975,45.979,50.349,47.124,51.734L47.291,51.938C47.138,49.994,46.741,47.985,45.475,46.507C45.475,46.507,45.223,46.235,45.3,45.961C45.578,44.965,47.96,46.078,49.723,47.646C51.332,49.077,52.715,50.769,53.847,52.607C53.649,49.426,52.423,46.278,50.562,43.719C50.562,43.719,50.177,43.2,50.999,42.794C52.339,42.134,54.001,42.299,55.591,42.477C58.136,42.763,60.671,43.321,63.031,44.29C60.917,40.491,56.703,38.378,52.167,38.026C51.399,37.966,50.316,37.92,50.316,37.92C49.817,37.848,49.681,37.238,50.273,36.86C50.44,36.754,50.61,36.653,50.783,36.556C53.544,35.022,56.902,34.683,60.089,35.142C56.858,32.563,51.918,32.205,48.301,34.189C47.688,34.525,47.116,34.942,46.636,35.452C46.636,35.452,46.188,35.729,45.589,35.116C43.038,32.522,38.928,31.921,35.373,32.02C35.373,32.02,38.493,33.809,39.998,35.436C39.998,35.436,40.418,36.472,39.345,36.238C38.895,36.143,38.82,36.137,38.571,36.104C34.791,35.602,30.921,37.57,28.272,40.193C27.579,40.879,26.942,41.623,26.389,42.427C26.389,42.427,27.828,41.734,29.107,41.272C30.003,40.949,30.91,40.669,31.832,40.421Z" fill="#b3d234" fill-rule="nonzero" opacity="0" transform="translate(34.8626,37.9354) rotate(-7.52321) translate(-44.5166,-63.6512)" style="animation: icon_palmtree_t 3s linear both, icon_palmtree_o 3s linear both;"/>
        </g>
        <g id="icon_bikini" style="animation: a5_t 3s linear both;">
            <path d="M256.587,174.801C255.772,174.346,255.046,174.874,254.678,175.534C254.088,176.592,254.319,177.403,255.1,177.838C256.888,178.834,257.139,179.77,256.153,181.54C255.476,182.755,256.595,183.401,257.532,183.923C258.625,184.532,259.559,184.939,260.274,183.654C261.27,181.867,263.024,182.025,263.874,182.499C264.829,183.031,265.701,183.016,266.378,181.801C266.668,181.281,267.234,180.345,266.245,179.794C265.03,179.118,262.943,178.66,261.346,177.77C259.819,176.919,257.889,175.526,256.587,174.801ZM256.305,175.553C257.711,176.336,259.432,177.614,260.959,178.464C262.66,179.412,264.973,179.995,265.754,180.431C266.205,180.682,265.858,181.102,265.674,181.432C265.345,182.022,264.849,182.178,264.346,181.897C262.61,180.93,260.827,181.029,259.58,183.267C259.232,183.892,258.63,183.625,257.919,183.229C257.294,182.881,256.557,182.448,256.847,181.927C257.998,179.862,257.864,178.468,255.504,177.154C255.14,176.95,254.939,176.657,255.353,175.955C255.546,175.608,255.836,175.292,256.305,175.553ZM246.98,163.104C247.414,163.345,248.457,162.289,249.984,163.14C251.442,163.952,251.926,166.064,253.575,166.982C254.807,167.669,256.25,167.609,257.504,168.216C257.818,168.755,258.475,169.576,259.724,170.272C261.824,171.442,263.216,171.557,263.216,171.557C263.304,171.561,263.916,171.606,264.367,171.857C264.61,171.993,264.844,172.146,265.057,172.333C265.431,172.723,266.237,173.4,267.608,174.163C268.927,174.898,269.981,175.007,270.569,174.971C271.778,175.577,273.088,175.715,274.234,176.354C275.64,177.137,276.322,178.973,277.832,179.814C279.117,180.529,280.828,180.437,281.109,179.933C281.215,179.742,281.179,179.563,280.988,179.457C280.537,179.205,279.642,179.912,278.219,179.12C276.709,178.278,276.078,176.472,274.621,175.659C273.614,175.099,272.528,174.926,271.513,174.542C271.32,173.297,270.88,169.8,271.296,169.054C272.272,167.301,272.012,165.36,272.834,163.885C273.762,162.219,275.486,162.064,276.874,162.838C277.1,162.963,277.308,162.875,277.415,162.684C277.521,162.493,277.486,162.269,277.296,162.163C275.508,161.167,273.329,161.363,272.14,163.498C271.212,165.164,271.534,167.117,270.592,168.685C270.016,169.637,265.69,170.912,264.754,171.163C264.407,170.97,263.957,170.879,263.683,170.84C263.316,169.498,262.331,165.675,262.814,164.807C263.772,163.089,265.324,162.384,266.416,160.423C267.635,158.236,266.897,157.029,265.665,156.343C264.276,155.569,262.587,156.357,262.258,156.947C262.152,157.138,262.161,157.325,262.37,157.441C262.856,157.712,263.768,156.196,265.278,157.037C266.129,157.511,266.631,158.405,265.722,160.036C264.581,162.084,262.981,162.875,262.12,164.42C261.676,165.218,257.965,166.858,257.121,167.229C256.016,166.887,254.847,166.781,253.962,166.288C252.348,165.389,252.037,163.374,250.371,162.446C249.087,161.73,247.224,162.012,246.886,162.619C246.809,162.758,246.772,162.988,246.98,163.104ZM270.667,174.184C270.221,174.209,269.245,174.165,267.995,173.469C266.572,172.676,265.87,172.058,265.581,171.761C266.762,171.395,269.046,170.643,270.38,169.84C270.304,171.162,270.519,173.102,270.667,174.184ZM261.924,165.63C261.936,167.16,262.491,169.47,262.809,170.694C262.281,170.581,261.361,170.274,260.111,169.577C258.81,168.852,258.276,168.055,258.08,167.672C259.087,167.211,260.833,166.364,261.924,165.63Z" fill="#b3d234" opacity="0" transform="translate(244.5,218.072) rotate(195.391) translate(-263.996,-170.26)" style="animation: icon_bikini_t 3s linear both, icon_bikini_o 3s linear both;"/>
        </g>
        <g id="icon_heart" style="animation: a6_t 3s linear both;">
            <path d="M23.848,166.77C24.003,166.765,24.149,166.643,24.161,166.509C24.191,166.185,23.964,164.892,23.788,164.086L24.966,164.677C25.109,165.422,25.308,167.656,25.785,167.7C25.957,167.716,26.103,167.594,26.117,167.441C26.147,167.117,25.918,165.843,25.758,165.077L26.936,165.668C27.076,166.451,27.281,168.608,27.721,168.649C27.892,168.665,28.058,168.545,28.072,168.392C28.09,167.99,27.734,166.204,27.598,165.594C28.295,165.138,30.156,164.385,30.192,164.003C30.207,163.831,30.029,163.68,29.876,163.666C29.419,163.604,28.366,164.374,27.248,165.003C26.953,164.86,26.568,164.651,26.069,164.412C26.9,163.969,28.204,163.415,28.237,163.052C28.253,162.88,28.055,162.727,27.922,162.715C27.463,162.672,26.413,163.404,25.334,164.036L24.155,163.446C24.984,163.021,26.249,162.464,26.281,162.12C26.297,161.948,26.139,161.779,25.986,161.765C25.528,161.723,24.48,162.435,23.419,163.07L20.51,161.607C21.681,159.981,22.561,158.174,22.746,156.168C22.965,153.8,21.51,152.028,19.428,151.835C17.193,151.629,15.828,153.064,15.212,154.933C15.128,151.882,13.908,149.862,11.004,149.594C8.234,149.338,6.289,150.796,5.798,154.238C3.552,153.106,1.802,152.231,1.085,151.857C1.837,151.233,3.903,150.556,3.936,150.193C3.95,150.041,3.923,149.922,3.693,149.901C3.311,149.866,0.065,151.223,0.005,151.873C-0.06,152.579,0.512,155.773,1.028,155.82C1.219,155.838,1.332,155.656,1.346,155.503C1.397,154.949,0.762,153.484,0.768,152.579C1.523,152.957,3.347,153.857,5.722,155.059C5.487,159.276,9.125,164.1,11.921,167.422C12.215,167.776,12.736,168.19,13.29,168.242C14.36,168.34,15.256,167.19,15.91,166.576C17.282,165.277,18.802,163.838,20.068,162.221C21.138,162.743,22.13,163.259,23.033,163.708C23.145,164.374,23.352,166.724,23.848,166.77ZM10.926,157.119C10.945,156.909,10.826,156.744,10.586,156.625C9.13,155.913,7.767,155.229,6.535,154.595C6.901,151.469,8.527,150.136,10.934,150.358C13.837,150.626,14.744,153.118,14.41,156.728C14.315,157.76,14.634,158.059,14.94,158.087C15.284,158.119,15.517,157.89,15.623,156.744C15.833,154.47,17.008,152.383,19.357,152.6C21.019,152.753,22.159,154.187,21.982,156.098C21.628,159.937,18.022,163.515,15.424,165.992C14.916,166.484,13.933,167.53,13.36,167.477C13.074,167.451,12.659,167.143,12.278,166.684C9.819,163.683,6.468,159.289,6.477,155.437L10.345,157.355C10.566,157.471,10.896,157.444,10.926,157.119Z" fill="#f59995" fill-rule="nonzero" opacity="0" transform="translate(43.39,211.519) rotate(191.76) translate(-15.0964,-159.108)" style="animation: icon_heart_t 3s linear both, icon_heart_o 3s linear both;"/>
        </g>
        <g id="icon_glass" style="animation: a7_t 3s linear both;">
            <path d="M239.466,73.78C240.004,77.808,241.981,85.425,242.48,89.159C242.739,91.104,245.648,91.316,248.046,90.996C250.62,90.652,252.753,89.547,252.535,87.916C252.094,84.615,252.939,75.961,252.464,72.404C252.364,71.657,251.749,71.099,250.898,70.713C251.603,68.359,252.305,66.125,252.943,64.159C253.082,63.701,252.341,63.4,252.174,63.942L250.14,70.434C248.807,70.032,247.195,69.947,246.036,70.102C243.599,70.428,239.099,71.028,239.466,73.78ZM245.604,88.742C246.828,84.578,248.193,79.815,249.547,75.274C250.405,74.959,251.23,74.549,251.784,74.055C251.971,78.15,251.352,85.054,251.749,88.021C251.898,89.141,250.083,89.924,247.941,90.21C245.897,90.483,243.447,90.41,243.266,89.054C242.796,85.536,241.253,79.522,240.517,75.359C242.07,76.352,244.968,76.185,246.501,75.981C247.051,75.907,247.792,75.768,248.565,75.565C247.215,79.986,245.939,84.356,244.835,88.524C244.685,89.044,245.451,89.242,245.604,88.742ZM240.255,73.694C239.99,71.71,243.979,71.177,246.141,70.888C247.202,70.747,248.729,70.803,249.915,71.144L248.828,74.69C247.943,74.948,247.024,75.111,246.396,75.195C244.548,75.441,240.52,75.679,240.255,73.694ZM251.678,72.509C251.793,73.374,250.91,73.952,249.807,74.379C250.094,73.381,250.4,72.38,250.692,71.421C251.228,71.689,251.617,72.057,251.678,72.509Z" fill="#41bfb7" fill-rule="nonzero" opacity="0" transform="translate(263.996,23.338) rotate(163.125) translate(-246.203,-77.3848)" style="animation: icon_glass_t 3s linear both, icon_glass_o 3s linear both;"/>
        </g>
    </g>
</svg>
